<?xml version="1.0" encoding="UTF-8" standalone="no"?>
<!DOCTYPE svg PUBLIC "-//W3C//DTD SVG 1.1//EN"
 "http://www.w3.org/Graphics/SVG/1.1/DTD/svg11.dtd">
<!-- Generated by graphviz version 2.40.1 (20161225.0304)
 -->
<!-- Title: compactRelationshipsDiagram Pages: 1 -->
<svg width="732pt" height="199pt"
 viewBox="0.00 0.00 732.00 199.20" xmlns="http://www.w3.org/2000/svg" xmlns:xlink="http://www.w3.org/1999/xlink">
<g id="graph0" class="graph" transform="scale(1 1) rotate(0) translate(4 195.2)">
<title>compactRelationshipsDiagram</title>
<polygon fill="#ffffff" stroke="transparent" points="-4,4 -4,-195.2 728,-195.2 728,4 -4,4"/>
<text text-anchor="middle" x="72.4936" y="-7.3" font-family="Helvetica,sans-Serif" font-size="11.00" fill="#000000">Generated by SchemaSpy</text>
<!-- mvm_movement_group -->
<g id="node1" class="node">
<title>mvm_movement_group</title>
<g id="a_node1"><a xlink:href="../../tables/mvm_movement_group.html" xlink:title="mvm_movement_group" target="_top">
<polygon fill="#ffffff" stroke="transparent" points="8,-82.2 8,-187.2 203,-187.2 203,-82.2 8,-82.2"/>
<polygon fill="#f5f5f5" stroke="transparent" points="8.5,-163.7 8.5,-186.7 203.5,-186.7 203.5,-163.7 8.5,-163.7"/>
<polygon fill="none" stroke="#000000" points="8.5,-163.7 8.5,-186.7 203.5,-186.7 203.5,-163.7 8.5,-163.7"/>
<text text-anchor="start" x="13.5" y="-172.3" font-family="Helvetica,sans-Serif" font-weight="bold" font-size="11.00" fill="#000000">mvm_movement_group</text>
<text text-anchor="start" x="169.0219" y="-171.8" font-family="Helvetica,sans-Serif" font-size="11.00" fill="#000000">[table]</text>
<polygon fill="none" stroke="#000000" points="8.5,-141.7 8.5,-163.7 203.5,-163.7 203.5,-141.7 8.5,-141.7"/>
<image xlink:href="../../images/primaryKeys.png" width="11px" height="12px" preserveAspectRatio="xMinYMin meet" x="13.5" y="-158.7"/>
<text text-anchor="start" x="37.5" y="-148.8" font-family="Helvetica,sans-Serif" font-size="11.00" fill="#000000">c_pk</text>
<polygon fill="#ffffff" stroke="transparent" points="8.5,-119.7 8.5,-141.7 203.5,-141.7 203.5,-119.7 8.5,-119.7"/>
<polygon fill="none" stroke="#000000" points="8.5,-119.7 8.5,-141.7 203.5,-141.7 203.5,-119.7 8.5,-119.7"/>
<text text-anchor="start" x="37.5" y="-126.8" font-family="Helvetica,sans-Serif" font-size="11.00" fill="#000000">c_pid</text>
<polygon fill="none" stroke="#000000" points="8.5,-100.7 8.5,-119.7 203.5,-119.7 203.5,-100.7 8.5,-100.7"/>
<text text-anchor="start" x="11.5" y="-106.8" font-family="Helvetica,sans-Serif" font-size="11.00" fill="#000000">...</text>
<polygon fill="#ffffff" stroke="transparent" points="8.5,-81.7 8.5,-100.7 95.5,-100.7 95.5,-81.7 8.5,-81.7"/>
<polygon fill="none" stroke="#000000" points="8.5,-81.7 8.5,-100.7 95.5,-100.7 95.5,-81.7 8.5,-81.7"/>
<text text-anchor="start" x="11.5" y="-87.8" font-family="Helvetica,sans-Serif" font-size="11.00" fill="#000000"> &#160;</text>
<polygon fill="#ffffff" stroke="transparent" points="95.5,-81.7 95.5,-100.7 144.5,-100.7 144.5,-81.7 95.5,-81.7"/>
<polygon fill="none" stroke="#000000" points="95.5,-81.7 95.5,-100.7 144.5,-100.7 144.5,-81.7 95.5,-81.7"/>
<text text-anchor="start" x="135.3862" y="-87.8" font-family="Helvetica,sans-Serif" font-size="11.00" fill="#000000"> &#160;</text>
<polygon fill="#ffffff" stroke="transparent" points="144.5,-81.7 144.5,-100.7 203.5,-100.7 203.5,-81.7 144.5,-81.7"/>
<polygon fill="none" stroke="#000000" points="144.5,-81.7 144.5,-100.7 203.5,-100.7 203.5,-81.7 144.5,-81.7"/>
<text text-anchor="start" x="184.9053" y="-87.8" font-family="Helvetica,sans-Serif" font-size="11.00" fill="#000000">1 &gt;</text>
</a>
</g>
</g>
<!-- mvm_problem_history -->
<g id="node2" class="node">
<title>mvm_problem_history</title>
<g id="a_node2"><a xlink:href="../../tables/mvm_problem_history.html" xlink:title="mvm_problem_history" target="_top">
<polygon fill="#ffffff" stroke="transparent" points="529,-38.2 529,-165.2 716,-165.2 716,-38.2 529,-38.2"/>
<polygon fill="#f5f5f5" stroke="transparent" points="529.5,-141.7 529.5,-164.7 716.5,-164.7 716.5,-141.7 529.5,-141.7"/>
<polygon fill="none" stroke="#000000" points="529.5,-141.7 529.5,-164.7 716.5,-164.7 716.5,-141.7 529.5,-141.7"/>
<text text-anchor="start" x="534.5" y="-150.3" font-family="Helvetica,sans-Serif" font-weight="bold" font-size="11.00" fill="#000000">mvm_problem_history</text>
<text text-anchor="start" x="682.0219" y="-149.8" font-family="Helvetica,sans-Serif" font-size="11.00" fill="#000000">[table]</text>
<polygon fill="none" stroke="#000000" points="529.5,-119.7 529.5,-141.7 716.5,-141.7 716.5,-119.7 529.5,-119.7"/>
<image xlink:href="../../images/foreignKeys.png" width="11px" height="12px" preserveAspectRatio="xMinYMin meet" x="534.5" y="-136.7"/>
<text text-anchor="start" x="558.5" y="-126.8" font-family="Helvetica,sans-Serif" font-size="11.00" fill="#000000">c_fk_movement</text>
<polygon fill="none" stroke="#000000" points="529.5,-97.7 529.5,-119.7 716.5,-119.7 716.5,-97.7 529.5,-97.7"/>
<image xlink:href="../../images/primaryKeys.png" width="11px" height="12px" preserveAspectRatio="xMinYMin meet" x="534.5" y="-114.7"/>
<text text-anchor="start" x="558.5" y="-104.8" font-family="Helvetica,sans-Serif" font-size="11.00" fill="#000000">c_pk</text>
<polygon fill="#ffffff" stroke="transparent" points="529.5,-75.7 529.5,-97.7 716.5,-97.7 716.5,-75.7 529.5,-75.7"/>
<polygon fill="none" stroke="#000000" points="529.5,-75.7 529.5,-97.7 716.5,-97.7 716.5,-75.7 529.5,-75.7"/>
<text text-anchor="start" x="558.5" y="-82.8" font-family="Helvetica,sans-Serif" font-size="11.00" fill="#000000">c_pid</text>
<polygon fill="none" stroke="#000000" points="529.5,-56.7 529.5,-75.7 716.5,-75.7 716.5,-56.7 529.5,-56.7"/>
<text text-anchor="start" x="532.5" y="-62.8" font-family="Helvetica,sans-Serif" font-size="11.00" fill="#000000">...</text>
<polygon fill="#ffffff" stroke="transparent" points="529.5,-37.7 529.5,-56.7 621.5,-56.7 621.5,-37.7 529.5,-37.7"/>
<polygon fill="none" stroke="#000000" points="529.5,-37.7 529.5,-56.7 621.5,-56.7 621.5,-37.7 529.5,-37.7"/>
<text text-anchor="start" x="532.5" y="-43.8" font-family="Helvetica,sans-Serif" font-size="11.00" fill="#000000">&lt; 1</text>
<polygon fill="#ffffff" stroke="transparent" points="621.5,-37.7 621.5,-56.7 668.5,-56.7 668.5,-37.7 621.5,-37.7"/>
<polygon fill="none" stroke="#000000" points="621.5,-37.7 621.5,-56.7 668.5,-56.7 668.5,-37.7 621.5,-37.7"/>
<text text-anchor="start" x="659.3862" y="-43.8" font-family="Helvetica,sans-Serif" font-size="11.00" fill="#000000"> &#160;</text>
<polygon fill="#ffffff" stroke="transparent" points="668.5,-37.7 668.5,-56.7 716.5,-56.7 716.5,-37.7 668.5,-37.7"/>
<polygon fill="none" stroke="#000000" points="668.5,-37.7 668.5,-56.7 716.5,-56.7 716.5,-37.7 668.5,-37.7"/>
<text text-anchor="start" x="707.3862" y="-43.8" font-family="Helvetica,sans-Serif" font-size="11.00" fill="#000000"> &#160;</text>
</a>
</g>
</g>
<!-- mvm_movement -->
<g id="node3" class="node">
<title>mvm_movement</title>
<g id="a_node3"><a xlink:href="../../tables/mvm_movement.html" xlink:title="mvm_movement" target="_top">
<polygon fill="#ffffff" stroke="transparent" points="252,-60.2 252,-187.2 480,-187.2 480,-60.2 252,-60.2"/>
<polygon fill="#f5f5f5" stroke="transparent" points="252,-163.7 252,-186.7 480,-186.7 480,-163.7 252,-163.7"/>
<polygon fill="none" stroke="#000000" points="252,-163.7 252,-186.7 480,-186.7 480,-163.7 252,-163.7"/>
<text text-anchor="start" x="257" y="-172.3" font-family="Helvetica,sans-Serif" font-weight="bold" font-size="11.00" fill="#000000">mvm_movement</text>
<text text-anchor="start" x="445.0437" y="-171.8" font-family="Helvetica,sans-Serif" font-size="11.00" fill="#000000">[table]</text>
<polygon fill="none" stroke="#000000" points="252,-141.7 252,-163.7 480,-163.7 480,-141.7 252,-141.7"/>
<image xlink:href="../../images/foreignKeys.png" width="11px" height="12px" preserveAspectRatio="xMinYMin meet" x="257" y="-158.7"/>
<text text-anchor="start" x="272" y="-148.8" font-family="Helvetica,sans-Serif" font-size="11.00" fill="#000000">c_group_pk</text>
<polygon fill="none" stroke="#000000" points="252,-119.7 252,-141.7 480,-141.7 480,-119.7 252,-119.7"/>
<image xlink:href="../../images/primaryKeys.png" width="11px" height="12px" preserveAspectRatio="xMinYMin meet" x="257" y="-136.7"/>
<text text-anchor="start" x="272" y="-126.8" font-family="Helvetica,sans-Serif" font-size="11.00" fill="#000000">c_pk</text>
<polygon fill="#ffffff" stroke="transparent" points="252,-97.7 252,-119.7 480,-119.7 480,-97.7 252,-97.7"/>
<polygon fill="none" stroke="#000000" points="252,-97.7 252,-119.7 480,-119.7 480,-97.7 252,-97.7"/>
<text text-anchor="start" x="272" y="-104.8" font-family="Helvetica,sans-Serif" font-size="11.00" fill="#000000">c_pid</text>
<polygon fill="none" stroke="#000000" points="252,-78.7 252,-97.7 480,-97.7 480,-78.7 252,-78.7"/>
<text text-anchor="start" x="255" y="-84.8" font-family="Helvetica,sans-Serif" font-size="11.00" fill="#000000">...</text>
<polygon fill="#ffffff" stroke="transparent" points="252,-59.7 252,-78.7 347,-78.7 347,-59.7 252,-59.7"/>
<polygon fill="none" stroke="#000000" points="252,-59.7 252,-78.7 347,-78.7 347,-59.7 252,-59.7"/>
<text text-anchor="start" x="255" y="-65.8" font-family="Helvetica,sans-Serif" font-size="11.00" fill="#000000">&lt; 1</text>
<polygon fill="#ffffff" stroke="transparent" points="347,-59.7 347,-78.7 422,-78.7 422,-59.7 347,-59.7"/>
<polygon fill="none" stroke="#000000" points="347,-59.7 347,-78.7 422,-78.7 422,-59.7 347,-59.7"/>
<text text-anchor="start" x="386.6105" y="-65.8" font-family="Helvetica,sans-Serif" font-size="11.00" fill="#000000">3 rows</text>
<polygon fill="#ffffff" stroke="transparent" points="422,-59.7 422,-78.7 480,-78.7 480,-59.7 422,-59.7"/>
<polygon fill="none" stroke="#000000" points="422,-59.7 422,-78.7 480,-78.7 480,-59.7 422,-59.7"/>
<text text-anchor="start" x="461.4053" y="-65.8" font-family="Helvetica,sans-Serif" font-size="11.00" fill="#000000">1 &gt;</text>
</a>
</g>
</g>
<!-- mvm_problem_history&#45;&gt;mvm_movement -->
<g id="edge2" class="edge">
<title>mvm_problem_history:w&#45;&gt;mvm_movement:e</title>
<path fill="none" stroke="#000000" d="M514.8428,-130.7C503.4139,-130.7 496.1563,-130.7 480,-130.7"/>
<polygon fill="#000000" stroke="#000000" points="521.5,-130.7001 529.5,-134.3 525.5,-130.7 529.5,-130.7 529.5,-130.7 529.5,-130.7 525.5,-130.7 529.5,-127.1 521.5,-130.7001 521.5,-130.7001"/>
<ellipse fill="none" stroke="#000000" cx="518.3" cy="-130.7001" rx="3.2" ry="3.2"/>
</g>
<!-- mvm_movement&#45;&gt;mvm_movement_group -->
<g id="edge1" class="edge">
<title>mvm_movement:w&#45;&gt;mvm_movement_group:e</title>
<path fill="none" stroke="#000000" d="M237.2829,-152.7C226.2886,-152.7 219.1615,-152.7 203.5,-152.7"/>
<polygon fill="#000000" stroke="#000000" points="244,-152.7001 252,-156.3 248,-152.7 252,-152.7 252,-152.7 252,-152.7 248,-152.7 252,-149.1 244,-152.7001 244,-152.7001"/>
<ellipse fill="none" stroke="#000000" cx="240.8" cy="-152.7001" rx="3.2" ry="3.2"/>
</g>
</g>
</svg>
