<?xml version="1.0" encoding="UTF-8" standalone="no"?>
<!DOCTYPE svg PUBLIC "-//W3C//DTD SVG 1.1//EN"
 "http://www.w3.org/Graphics/SVG/1.1/DTD/svg11.dtd">
<!-- Generated by graphviz version 2.40.1 (20161225.0304)
 -->
<!-- Title: largeRelationshipsDiagram Pages: 1 -->
<svg width="732pt" height="664pt"
 viewBox="0.00 0.00 732.00 664.20" xmlns="http://www.w3.org/2000/svg" xmlns:xlink="http://www.w3.org/1999/xlink">
<g id="graph0" class="graph" transform="scale(1 1) rotate(0) translate(4 660.2)">
<title>largeRelationshipsDiagram</title>
<polygon fill="#ffffff" stroke="transparent" points="-4,4 -4,-660.2 728,-660.2 728,4 -4,4"/>
<text text-anchor="middle" x="72.4936" y="-7.3" font-family="Helvetica,sans-Serif" font-size="11.00" fill="#000000">Generated by SchemaSpy</text>
<!-- mvm_movement_group -->
<g id="node1" class="node">
<title>mvm_movement_group</title>
<g id="a_node1"><a xlink:href="../../tables/mvm_movement_group.html" xlink:title="mvm_movement_group" target="_top">
<polygon fill="#ffffff" stroke="transparent" points="8,-390.2 8,-652.2 203,-652.2 203,-390.2 8,-390.2"/>
<polygon fill="#f5f5f5" stroke="transparent" points="8.5,-629.2 8.5,-652.2 203.5,-652.2 203.5,-629.2 8.5,-629.2"/>
<polygon fill="none" stroke="#000000" points="8.5,-629.2 8.5,-652.2 203.5,-652.2 203.5,-629.2 8.5,-629.2"/>
<text text-anchor="start" x="13.5" y="-637.8" font-family="Helvetica,sans-Serif" font-weight="bold" font-size="11.00" fill="#000000">mvm_movement_group</text>
<text text-anchor="start" x="169.0219" y="-637.3" font-family="Helvetica,sans-Serif" font-size="11.00" fill="#000000">[table]</text>
<polygon fill="none" stroke="#000000" points="8.5,-607.2 8.5,-629.2 203.5,-629.2 203.5,-607.2 8.5,-607.2"/>
<text text-anchor="start" x="37.5" y="-614.3" font-family="Helvetica,sans-Serif" font-size="11.00" fill="#000000">c_created</text>
<polygon fill="none" stroke="#000000" points="8.5,-585.2 8.5,-607.2 203.5,-607.2 203.5,-585.2 8.5,-585.2"/>
<text text-anchor="start" x="37.5" y="-592.3" font-family="Helvetica,sans-Serif" font-size="11.00" fill="#000000">c_ol</text>
<polygon fill="none" stroke="#000000" points="8.5,-563.2 8.5,-585.2 203.5,-585.2 203.5,-563.2 8.5,-563.2"/>
<image xlink:href="../../images/primaryKeys.png" width="11px" height="12px" preserveAspectRatio="xMinYMin meet" x="13.5" y="-580.2"/>
<text text-anchor="start" x="37.5" y="-570.3" font-family="Helvetica,sans-Serif" font-size="11.00" fill="#000000">c_pk</text>
<polygon fill="none" stroke="#000000" points="8.5,-541.2 8.5,-563.2 203.5,-563.2 203.5,-541.2 8.5,-541.2"/>
<text text-anchor="start" x="37.5" y="-548.3" font-family="Helvetica,sans-Serif" font-size="11.00" fill="#000000">c_updated</text>
<polygon fill="none" stroke="#000000" points="8.5,-519.2 8.5,-541.2 203.5,-541.2 203.5,-519.2 8.5,-519.2"/>
<text text-anchor="start" x="37.5" y="-526.3" font-family="Helvetica,sans-Serif" font-size="11.00" fill="#000000">c_created_by</text>
<polygon fill="none" stroke="#000000" points="8.5,-497.2 8.5,-519.2 203.5,-519.2 203.5,-497.2 8.5,-497.2"/>
<text text-anchor="start" x="37.5" y="-504.3" font-family="Helvetica,sans-Serif" font-size="11.00" fill="#000000">c_name</text>
<polygon fill="#ffffff" stroke="transparent" points="8.5,-475.2 8.5,-497.2 203.5,-497.2 203.5,-475.2 8.5,-475.2"/>
<polygon fill="none" stroke="#000000" points="8.5,-475.2 8.5,-497.2 203.5,-497.2 203.5,-475.2 8.5,-475.2"/>
<text text-anchor="start" x="37.5" y="-482.3" font-family="Helvetica,sans-Serif" font-size="11.00" fill="#000000">c_pid</text>
<polygon fill="none" stroke="#000000" points="8.5,-453.2 8.5,-475.2 203.5,-475.2 203.5,-453.2 8.5,-453.2"/>
<text text-anchor="start" x="37.5" y="-460.3" font-family="Helvetica,sans-Serif" font-size="11.00" fill="#000000">c_state</text>
<polygon fill="none" stroke="#000000" points="8.5,-431.2 8.5,-453.2 203.5,-453.2 203.5,-431.2 8.5,-431.2"/>
<text text-anchor="start" x="37.5" y="-438.3" font-family="Helvetica,sans-Serif" font-size="11.00" fill="#000000">c_updated_by</text>
<polygon fill="none" stroke="#000000" points="8.5,-409.2 8.5,-431.2 203.5,-431.2 203.5,-409.2 8.5,-409.2"/>
<text text-anchor="start" x="37.5" y="-416.3" font-family="Helvetica,sans-Serif" font-size="11.00" fill="#000000">c_user</text>
<polygon fill="#ffffff" stroke="transparent" points="8.5,-390.2 8.5,-409.2 95.5,-409.2 95.5,-390.2 8.5,-390.2"/>
<polygon fill="none" stroke="#000000" points="8.5,-390.2 8.5,-409.2 95.5,-409.2 95.5,-390.2 8.5,-390.2"/>
<text text-anchor="start" x="11.5" y="-396.3" font-family="Helvetica,sans-Serif" font-size="11.00" fill="#000000"> &#160;</text>
<polygon fill="#ffffff" stroke="transparent" points="95.5,-390.2 95.5,-409.2 144.5,-409.2 144.5,-390.2 95.5,-390.2"/>
<polygon fill="none" stroke="#000000" points="95.5,-390.2 95.5,-409.2 144.5,-409.2 144.5,-390.2 95.5,-390.2"/>
<text text-anchor="start" x="135.3862" y="-396.3" font-family="Helvetica,sans-Serif" font-size="11.00" fill="#000000"> &#160;</text>
<polygon fill="#ffffff" stroke="transparent" points="144.5,-390.2 144.5,-409.2 203.5,-409.2 203.5,-390.2 144.5,-390.2"/>
<polygon fill="none" stroke="#000000" points="144.5,-390.2 144.5,-409.2 203.5,-409.2 203.5,-390.2 144.5,-390.2"/>
<text text-anchor="start" x="184.9053" y="-396.3" font-family="Helvetica,sans-Serif" font-size="11.00" fill="#000000">1 &gt;</text>
</a>
</g>
</g>
<!-- mvm_problem_history -->
<g id="node2" class="node">
<title>mvm_problem_history</title>
<g id="a_node2"><a xlink:href="../../tables/mvm_problem_history.html" xlink:title="mvm_problem_history" target="_top">
<polygon fill="#ffffff" stroke="transparent" points="529,-258.2 529,-542.2 716,-542.2 716,-258.2 529,-258.2"/>
<polygon fill="#f5f5f5" stroke="transparent" points="529.5,-519.2 529.5,-542.2 716.5,-542.2 716.5,-519.2 529.5,-519.2"/>
<polygon fill="none" stroke="#000000" points="529.5,-519.2 529.5,-542.2 716.5,-542.2 716.5,-519.2 529.5,-519.2"/>
<text text-anchor="start" x="534.5" y="-527.8" font-family="Helvetica,sans-Serif" font-weight="bold" font-size="11.00" fill="#000000">mvm_problem_history</text>
<text text-anchor="start" x="682.0219" y="-527.3" font-family="Helvetica,sans-Serif" font-size="11.00" fill="#000000">[table]</text>
<polygon fill="none" stroke="#000000" points="529.5,-497.2 529.5,-519.2 716.5,-519.2 716.5,-497.2 529.5,-497.2"/>
<text text-anchor="start" x="558.5" y="-504.3" font-family="Helvetica,sans-Serif" font-size="11.00" fill="#000000">c_created</text>
<polygon fill="none" stroke="#000000" points="529.5,-475.2 529.5,-497.2 716.5,-497.2 716.5,-475.2 529.5,-475.2"/>
<image xlink:href="../../images/foreignKeys.png" width="11px" height="12px" preserveAspectRatio="xMinYMin meet" x="534.5" y="-492.2"/>
<text text-anchor="start" x="558.5" y="-482.3" font-family="Helvetica,sans-Serif" font-size="11.00" fill="#000000">c_fk_movement</text>
<polygon fill="none" stroke="#000000" points="529.5,-453.2 529.5,-475.2 716.5,-475.2 716.5,-453.2 529.5,-453.2"/>
<text text-anchor="start" x="558.5" y="-460.3" font-family="Helvetica,sans-Serif" font-size="11.00" fill="#000000">c_occurred</text>
<polygon fill="none" stroke="#000000" points="529.5,-431.2 529.5,-453.2 716.5,-453.2 716.5,-431.2 529.5,-431.2"/>
<text text-anchor="start" x="558.5" y="-438.3" font-family="Helvetica,sans-Serif" font-size="11.00" fill="#000000">c_ol</text>
<polygon fill="none" stroke="#000000" points="529.5,-409.2 529.5,-431.2 716.5,-431.2 716.5,-409.2 529.5,-409.2"/>
<image xlink:href="../../images/primaryKeys.png" width="11px" height="12px" preserveAspectRatio="xMinYMin meet" x="534.5" y="-426.2"/>
<text text-anchor="start" x="558.5" y="-416.3" font-family="Helvetica,sans-Serif" font-size="11.00" fill="#000000">c_pk</text>
<polygon fill="none" stroke="#000000" points="529.5,-387.2 529.5,-409.2 716.5,-409.2 716.5,-387.2 529.5,-387.2"/>
<text text-anchor="start" x="558.5" y="-394.3" font-family="Helvetica,sans-Serif" font-size="11.00" fill="#000000">c_updated</text>
<polygon fill="none" stroke="#000000" points="529.5,-365.2 529.5,-387.2 716.5,-387.2 716.5,-365.2 529.5,-365.2"/>
<text text-anchor="start" x="558.5" y="-372.3" font-family="Helvetica,sans-Serif" font-size="11.00" fill="#000000">c_message</text>
<polygon fill="none" stroke="#000000" points="529.5,-343.2 529.5,-365.2 716.5,-365.2 716.5,-343.2 529.5,-343.2"/>
<text text-anchor="start" x="558.5" y="-350.3" font-family="Helvetica,sans-Serif" font-size="11.00" fill="#000000">c_created_by</text>
<polygon fill="none" stroke="#000000" points="529.5,-321.2 529.5,-343.2 716.5,-343.2 716.5,-321.2 529.5,-321.2"/>
<text text-anchor="start" x="558.5" y="-328.3" font-family="Helvetica,sans-Serif" font-size="11.00" fill="#000000">c_no</text>
<polygon fill="#ffffff" stroke="transparent" points="529.5,-299.2 529.5,-321.2 716.5,-321.2 716.5,-299.2 529.5,-299.2"/>
<polygon fill="none" stroke="#000000" points="529.5,-299.2 529.5,-321.2 716.5,-321.2 716.5,-299.2 529.5,-299.2"/>
<text text-anchor="start" x="558.5" y="-306.3" font-family="Helvetica,sans-Serif" font-size="11.00" fill="#000000">c_pid</text>
<polygon fill="none" stroke="#000000" points="529.5,-277.2 529.5,-299.2 716.5,-299.2 716.5,-277.2 529.5,-277.2"/>
<text text-anchor="start" x="558.5" y="-284.3" font-family="Helvetica,sans-Serif" font-size="11.00" fill="#000000">c_updated_by</text>
<polygon fill="#ffffff" stroke="transparent" points="529.5,-258.2 529.5,-277.2 621.5,-277.2 621.5,-258.2 529.5,-258.2"/>
<polygon fill="none" stroke="#000000" points="529.5,-258.2 529.5,-277.2 621.5,-277.2 621.5,-258.2 529.5,-258.2"/>
<text text-anchor="start" x="532.5" y="-264.3" font-family="Helvetica,sans-Serif" font-size="11.00" fill="#000000">&lt; 1</text>
<polygon fill="#ffffff" stroke="transparent" points="621.5,-258.2 621.5,-277.2 668.5,-277.2 668.5,-258.2 621.5,-258.2"/>
<polygon fill="none" stroke="#000000" points="621.5,-258.2 621.5,-277.2 668.5,-277.2 668.5,-258.2 621.5,-258.2"/>
<text text-anchor="start" x="659.3862" y="-264.3" font-family="Helvetica,sans-Serif" font-size="11.00" fill="#000000"> &#160;</text>
<polygon fill="#ffffff" stroke="transparent" points="668.5,-258.2 668.5,-277.2 716.5,-277.2 716.5,-258.2 668.5,-258.2"/>
<polygon fill="none" stroke="#000000" points="668.5,-258.2 668.5,-277.2 716.5,-277.2 716.5,-258.2 668.5,-258.2"/>
<text text-anchor="start" x="707.3862" y="-264.3" font-family="Helvetica,sans-Serif" font-size="11.00" fill="#000000"> &#160;</text>
</a>
</g>
</g>
<!-- mvm_movement -->
<g id="node3" class="node">
<title>mvm_movement</title>
<g id="a_node3"><a xlink:href="../../tables/mvm_movement.html" xlink:title="mvm_movement" target="_top">
<polygon fill="#ffffff" stroke="transparent" points="252,-38.2 252,-652.2 480,-652.2 480,-38.2 252,-38.2"/>
<polygon fill="#f5f5f5" stroke="transparent" points="252,-629.2 252,-652.2 480,-652.2 480,-629.2 252,-629.2"/>
<polygon fill="none" stroke="#000000" points="252,-629.2 252,-652.2 480,-652.2 480,-629.2 252,-629.2"/>
<text text-anchor="start" x="257" y="-637.8" font-family="Helvetica,sans-Serif" font-weight="bold" font-size="11.00" fill="#000000">mvm_movement</text>
<text text-anchor="start" x="445.0437" y="-637.3" font-family="Helvetica,sans-Serif" font-size="11.00" fill="#000000">[table]</text>
<polygon fill="none" stroke="#000000" points="252,-607.2 252,-629.2 480,-629.2 480,-607.2 252,-607.2"/>
<text text-anchor="start" x="272" y="-614.3" font-family="Helvetica,sans-Serif" font-size="11.00" fill="#000000">c_created</text>
<polygon fill="none" stroke="#000000" points="252,-585.2 252,-607.2 480,-607.2 480,-585.2 252,-585.2"/>
<text text-anchor="start" x="272" y="-592.3" font-family="Helvetica,sans-Serif" font-size="11.00" fill="#000000">c_end_date</text>
<polygon fill="none" stroke="#000000" points="252,-563.2 252,-585.2 480,-585.2 480,-563.2 252,-563.2"/>
<image xlink:href="../../images/foreignKeys.png" width="11px" height="12px" preserveAspectRatio="xMinYMin meet" x="257" y="-580.2"/>
<text text-anchor="start" x="272" y="-570.3" font-family="Helvetica,sans-Serif" font-size="11.00" fill="#000000">c_group_pk</text>
<polygon fill="none" stroke="#000000" points="252,-541.2 252,-563.2 480,-563.2 480,-541.2 252,-541.2"/>
<text text-anchor="start" x="272" y="-548.3" font-family="Helvetica,sans-Serif" font-size="11.00" fill="#000000">c_latest_due</text>
<polygon fill="none" stroke="#000000" points="252,-519.2 252,-541.2 480,-541.2 480,-519.2 252,-519.2"/>
<text text-anchor="start" x="272" y="-526.3" font-family="Helvetica,sans-Serif" font-size="11.00" fill="#000000">c_occurred</text>
<polygon fill="none" stroke="#000000" points="252,-497.2 252,-519.2 480,-519.2 480,-497.2 252,-497.2"/>
<text text-anchor="start" x="272" y="-504.3" font-family="Helvetica,sans-Serif" font-size="11.00" fill="#000000">c_ol</text>
<polygon fill="none" stroke="#000000" points="252,-475.2 252,-497.2 480,-497.2 480,-475.2 252,-475.2"/>
<image xlink:href="../../images/primaryKeys.png" width="11px" height="12px" preserveAspectRatio="xMinYMin meet" x="257" y="-492.2"/>
<text text-anchor="start" x="272" y="-482.3" font-family="Helvetica,sans-Serif" font-size="11.00" fill="#000000">c_pk</text>
<polygon fill="none" stroke="#000000" points="252,-453.2 252,-475.2 480,-475.2 480,-453.2 252,-453.2"/>
<text text-anchor="start" x="272" y="-460.3" font-family="Helvetica,sans-Serif" font-size="11.00" fill="#000000">c_start_date</text>
<polygon fill="none" stroke="#000000" points="252,-431.2 252,-453.2 480,-453.2 480,-431.2 252,-431.2"/>
<text text-anchor="start" x="272" y="-438.3" font-family="Helvetica,sans-Serif" font-size="11.00" fill="#000000">c_start_earliest_date</text>
<polygon fill="none" stroke="#000000" points="252,-409.2 252,-431.2 480,-431.2 480,-409.2 252,-409.2"/>
<text text-anchor="start" x="272" y="-416.3" font-family="Helvetica,sans-Serif" font-size="11.00" fill="#000000">c_updated</text>
<polygon fill="none" stroke="#000000" points="252,-387.2 252,-409.2 480,-409.2 480,-387.2 252,-387.2"/>
<text text-anchor="start" x="272" y="-394.3" font-family="Helvetica,sans-Serif" font-size="11.00" fill="#000000">c_message</text>
<polygon fill="none" stroke="#000000" points="252,-365.2 252,-387.2 480,-387.2 480,-365.2 252,-365.2"/>
<text text-anchor="start" x="272" y="-372.3" font-family="Helvetica,sans-Serif" font-size="11.00" fill="#000000">c_created_by</text>
<polygon fill="none" stroke="#000000" points="252,-343.2 252,-365.2 480,-365.2 480,-343.2 252,-343.2"/>
<text text-anchor="start" x="272" y="-350.3" font-family="Helvetica,sans-Serif" font-size="11.00" fill="#000000">c_initiator</text>
<polygon fill="none" stroke="#000000" points="252,-321.2 252,-343.2 480,-343.2 480,-321.2 252,-321.2"/>
<text text-anchor="start" x="272" y="-328.3" font-family="Helvetica,sans-Serif" font-size="11.00" fill="#000000">c_mode</text>
<polygon fill="none" stroke="#000000" points="252,-299.2 252,-321.2 480,-321.2 480,-299.2 252,-299.2"/>
<text text-anchor="start" x="272" y="-306.3" font-family="Helvetica,sans-Serif" font-size="11.00" fill="#000000">c_no</text>
<polygon fill="#ffffff" stroke="transparent" points="252,-277.2 252,-299.2 480,-299.2 480,-277.2 252,-277.2"/>
<polygon fill="none" stroke="#000000" points="252,-277.2 252,-299.2 480,-299.2 480,-277.2 252,-277.2"/>
<text text-anchor="start" x="272" y="-284.3" font-family="Helvetica,sans-Serif" font-size="11.00" fill="#000000">c_pid</text>
<polygon fill="none" stroke="#000000" points="252,-255.2 252,-277.2 480,-277.2 480,-255.2 252,-255.2"/>
<text text-anchor="start" x="272" y="-262.3" font-family="Helvetica,sans-Serif" font-size="11.00" fill="#000000">c_priority</text>
<polygon fill="none" stroke="#000000" points="252,-233.2 252,-255.2 480,-255.2 480,-233.2 252,-233.2"/>
<text text-anchor="start" x="272" y="-240.3" font-family="Helvetica,sans-Serif" font-size="11.00" fill="#000000">c_sku</text>
<polygon fill="none" stroke="#000000" points="252,-211.2 252,-233.2 480,-233.2 480,-211.2 252,-211.2"/>
<text text-anchor="start" x="272" y="-218.3" font-family="Helvetica,sans-Serif" font-size="11.00" fill="#000000">c_source_location</text>
<polygon fill="none" stroke="#000000" points="252,-189.2 252,-211.2 480,-211.2 480,-189.2 252,-189.2"/>
<text text-anchor="start" x="272" y="-196.3" font-family="Helvetica,sans-Serif" font-size="11.00" fill="#000000">c_source_location_group_name</text>
<polygon fill="none" stroke="#000000" points="252,-167.2 252,-189.2 480,-189.2 480,-167.2 252,-167.2"/>
<text text-anchor="start" x="272" y="-174.3" font-family="Helvetica,sans-Serif" font-size="11.00" fill="#000000">c_state</text>
<polygon fill="none" stroke="#000000" points="252,-145.2 252,-167.2 480,-167.2 480,-145.2 252,-145.2"/>
<text text-anchor="start" x="272" y="-152.3" font-family="Helvetica,sans-Serif" font-size="11.00" fill="#000000">c_target_location</text>
<polygon fill="none" stroke="#000000" points="252,-123.2 252,-145.2 480,-145.2 480,-123.2 252,-123.2"/>
<text text-anchor="start" x="272" y="-130.3" font-family="Helvetica,sans-Serif" font-size="11.00" fill="#000000">c_target_location_group_name</text>
<polygon fill="none" stroke="#000000" points="252,-101.2 252,-123.2 480,-123.2 480,-101.2 252,-101.2"/>
<text text-anchor="start" x="272" y="-108.3" font-family="Helvetica,sans-Serif" font-size="11.00" fill="#000000">c_transport_unit_bk</text>
<polygon fill="none" stroke="#000000" points="252,-79.2 252,-101.2 480,-101.2 480,-79.2 252,-79.2"/>
<text text-anchor="start" x="272" y="-86.3" font-family="Helvetica,sans-Serif" font-size="11.00" fill="#000000">c_type</text>
<polygon fill="none" stroke="#000000" points="252,-57.2 252,-79.2 480,-79.2 480,-57.2 252,-57.2"/>
<text text-anchor="start" x="272" y="-64.3" font-family="Helvetica,sans-Serif" font-size="11.00" fill="#000000">c_updated_by</text>
<polygon fill="#ffffff" stroke="transparent" points="252,-38.2 252,-57.2 347,-57.2 347,-38.2 252,-38.2"/>
<polygon fill="none" stroke="#000000" points="252,-38.2 252,-57.2 347,-57.2 347,-38.2 252,-38.2"/>
<text text-anchor="start" x="255" y="-44.3" font-family="Helvetica,sans-Serif" font-size="11.00" fill="#000000">&lt; 1</text>
<polygon fill="#ffffff" stroke="transparent" points="347,-38.2 347,-57.2 422,-57.2 422,-38.2 347,-38.2"/>
<polygon fill="none" stroke="#000000" points="347,-38.2 347,-57.2 422,-57.2 422,-38.2 347,-38.2"/>
<text text-anchor="start" x="386.6105" y="-44.3" font-family="Helvetica,sans-Serif" font-size="11.00" fill="#000000">3 rows</text>
<polygon fill="#ffffff" stroke="transparent" points="422,-38.2 422,-57.2 480,-57.2 480,-38.2 422,-38.2"/>
<polygon fill="none" stroke="#000000" points="422,-38.2 422,-57.2 480,-57.2 480,-38.2 422,-38.2"/>
<text text-anchor="start" x="461.4053" y="-44.3" font-family="Helvetica,sans-Serif" font-size="11.00" fill="#000000">1 &gt;</text>
</a>
</g>
</g>
<!-- mvm_problem_history&#45;&gt;mvm_movement -->
<g id="edge2" class="edge">
<title>mvm_problem_history:w&#45;&gt;mvm_movement:e</title>
<path fill="none" stroke="#000000" d="M514.8428,-486.2C503.4139,-486.2 496.1563,-486.2 480,-486.2"/>
<polygon fill="#000000" stroke="#000000" points="521.5,-486.2001 529.5,-489.8 525.5,-486.2 529.5,-486.2 529.5,-486.2 529.5,-486.2 525.5,-486.2 529.5,-482.6 521.5,-486.2001 521.5,-486.2001"/>
<ellipse fill="none" stroke="#000000" cx="518.3" cy="-486.2001" rx="3.2" ry="3.2"/>
</g>
<!-- mvm_movement&#45;&gt;mvm_movement_group -->
<g id="edge1" class="edge">
<title>mvm_movement:w&#45;&gt;mvm_movement_group:e</title>
<path fill="none" stroke="#000000" d="M237.2829,-574.2C226.2886,-574.2 219.1615,-574.2 203.5,-574.2"/>
<polygon fill="#000000" stroke="#000000" points="244,-574.2001 252,-577.8 248,-574.2 252,-574.2 252,-574.2 252,-574.2 248,-574.2 252,-570.6 244,-574.2001 244,-574.2001"/>
<ellipse fill="none" stroke="#000000" cx="240.8" cy="-574.2001" rx="3.2" ry="3.2"/>
</g>
</g>
</svg>
