<?xml version="1.0" encoding="UTF-8" standalone="no"?>
<!DOCTYPE svg PUBLIC "-//W3C//DTD SVG 1.1//EN"
 "http://www.w3.org/Graphics/SVG/1.1/DTD/svg11.dtd">
<!-- Generated by graphviz version 2.40.1 (20161225.0304)
 -->
<!-- Title: oneDegreeRelationshipsDiagram Pages: 1 -->
<svg width="820pt" height="668pt"
 viewBox="0.00 0.00 820.00 668.20" xmlns="http://www.w3.org/2000/svg" xmlns:xlink="http://www.w3.org/1999/xlink">
<g id="graph0" class="graph" transform="scale(1 1) rotate(0) translate(4 664.2)">
<title>oneDegreeRelationshipsDiagram</title>
<polygon fill="#ffffff" stroke="transparent" points="-4,4 -4,-664.2 816,-664.2 816,4 -4,4"/>
<text text-anchor="middle" x="72.4936" y="-7.3" font-family="Helvetica,sans-Serif" font-size="11.00" fill="#000000">Generated by SchemaSpy</text>
<!-- mvm_movement -->
<g id="node1" class="node">
<title>mvm_movement</title>
<g id="a_node1"><a xlink:href="../../tables/mvm_movement.html" xlink:title="mvm_movement" target="_top">
<polygon fill="#ffffff" stroke="transparent" points="252,-38.2 252,-656.2 568,-656.2 568,-38.2 252,-38.2"/>
<polygon fill="#f5f5f5" stroke="transparent" points="254,-631.2 254,-654.2 566,-654.2 566,-631.2 254,-631.2"/>
<polygon fill="none" stroke="#000000" points="254,-631.2 254,-654.2 566,-654.2 566,-631.2 254,-631.2"/>
<text text-anchor="start" x="259" y="-639.8" font-family="Helvetica,sans-Serif" font-weight="bold" font-size="11.00" fill="#000000">mvm_movement</text>
<text text-anchor="start" x="531.0437" y="-639.3" font-family="Helvetica,sans-Serif" font-size="11.00" fill="#000000">[table]</text>
<polygon fill="none" stroke="#000000" points="254,-609.2 254,-631.2 482,-631.2 482,-609.2 254,-609.2"/>
<text text-anchor="start" x="274" y="-616.3" font-family="Helvetica,sans-Serif" font-size="11.00" fill="#000000">c_created</text>
<polygon fill="none" stroke="#000000" points="482,-609.2 482,-631.2 566,-631.2 566,-609.2 482,-609.2"/>
<text text-anchor="start" x="484.8807" y="-616.9" font-family="Helvetica,sans-Serif" font-size="11.00" fill="#000000">timestamp[29,6]</text>
<polygon fill="none" stroke="#000000" points="254,-587.2 254,-609.2 482,-609.2 482,-587.2 254,-587.2"/>
<text text-anchor="start" x="274" y="-594.3" font-family="Helvetica,sans-Serif" font-size="11.00" fill="#000000">c_end_date</text>
<polygon fill="none" stroke="#000000" points="482,-587.2 482,-609.2 566,-609.2 566,-587.2 482,-587.2"/>
<text text-anchor="start" x="485" y="-594.9" font-family="Helvetica,sans-Serif" font-size="11.00" fill="#000000">timestamp[22]</text>
<polygon fill="none" stroke="#000000" points="254,-565.2 254,-587.2 482,-587.2 482,-565.2 254,-565.2"/>
<image xlink:href="../../images/foreignKeys.png" width="11px" height="12px" preserveAspectRatio="xMinYMin meet" x="259" y="-582.2"/>
<text text-anchor="start" x="274" y="-572.3" font-family="Helvetica,sans-Serif" font-size="11.00" fill="#000000">c_group_pk</text>
<polygon fill="none" stroke="#000000" points="482,-565.2 482,-587.2 566,-587.2 566,-565.2 482,-565.2"/>
<text text-anchor="start" x="485" y="-572.9" font-family="Helvetica,sans-Serif" font-size="11.00" fill="#000000">int8[19]</text>
<polygon fill="none" stroke="#000000" points="254,-543.2 254,-565.2 482,-565.2 482,-543.2 254,-543.2"/>
<text text-anchor="start" x="274" y="-550.3" font-family="Helvetica,sans-Serif" font-size="11.00" fill="#000000">c_latest_due</text>
<polygon fill="none" stroke="#000000" points="482,-543.2 482,-565.2 566,-565.2 566,-543.2 482,-543.2"/>
<text text-anchor="start" x="485" y="-550.9" font-family="Helvetica,sans-Serif" font-size="11.00" fill="#000000">timestamp[22]</text>
<polygon fill="none" stroke="#000000" points="254,-521.2 254,-543.2 482,-543.2 482,-521.2 254,-521.2"/>
<text text-anchor="start" x="274" y="-528.3" font-family="Helvetica,sans-Serif" font-size="11.00" fill="#000000">c_occurred</text>
<polygon fill="none" stroke="#000000" points="482,-521.2 482,-543.2 566,-543.2 566,-521.2 482,-521.2"/>
<text text-anchor="start" x="484.8807" y="-528.9" font-family="Helvetica,sans-Serif" font-size="11.00" fill="#000000">timestamp[29,6]</text>
<polygon fill="none" stroke="#000000" points="254,-499.2 254,-521.2 482,-521.2 482,-499.2 254,-499.2"/>
<text text-anchor="start" x="274" y="-506.3" font-family="Helvetica,sans-Serif" font-size="11.00" fill="#000000">c_ol</text>
<polygon fill="none" stroke="#000000" points="482,-499.2 482,-521.2 566,-521.2 566,-499.2 482,-499.2"/>
<text text-anchor="start" x="485" y="-506.9" font-family="Helvetica,sans-Serif" font-size="11.00" fill="#000000">int8[19]</text>
<polygon fill="none" stroke="#000000" points="254,-477.2 254,-499.2 482,-499.2 482,-477.2 254,-477.2"/>
<image xlink:href="../../images/primaryKeys.png" width="11px" height="12px" preserveAspectRatio="xMinYMin meet" x="259" y="-494.2"/>
<text text-anchor="start" x="274" y="-484.3" font-family="Helvetica,sans-Serif" font-size="11.00" fill="#000000">c_pk</text>
<polygon fill="none" stroke="#000000" points="482,-477.2 482,-499.2 566,-499.2 566,-477.2 482,-477.2"/>
<text text-anchor="start" x="485" y="-484.9" font-family="Helvetica,sans-Serif" font-size="11.00" fill="#000000">int8[19]</text>
<polygon fill="none" stroke="#000000" points="254,-455.2 254,-477.2 482,-477.2 482,-455.2 254,-455.2"/>
<text text-anchor="start" x="274" y="-462.3" font-family="Helvetica,sans-Serif" font-size="11.00" fill="#000000">c_start_date</text>
<polygon fill="none" stroke="#000000" points="482,-455.2 482,-477.2 566,-477.2 566,-455.2 482,-455.2"/>
<text text-anchor="start" x="485" y="-462.9" font-family="Helvetica,sans-Serif" font-size="11.00" fill="#000000">timestamp[22]</text>
<polygon fill="none" stroke="#000000" points="254,-433.2 254,-455.2 482,-455.2 482,-433.2 254,-433.2"/>
<text text-anchor="start" x="274" y="-440.3" font-family="Helvetica,sans-Serif" font-size="11.00" fill="#000000">c_start_earliest_date</text>
<polygon fill="none" stroke="#000000" points="482,-433.2 482,-455.2 566,-455.2 566,-433.2 482,-433.2"/>
<text text-anchor="start" x="485" y="-440.9" font-family="Helvetica,sans-Serif" font-size="11.00" fill="#000000">timestamp[22]</text>
<polygon fill="none" stroke="#000000" points="254,-411.2 254,-433.2 482,-433.2 482,-411.2 254,-411.2"/>
<text text-anchor="start" x="274" y="-418.3" font-family="Helvetica,sans-Serif" font-size="11.00" fill="#000000">c_updated</text>
<polygon fill="none" stroke="#000000" points="482,-411.2 482,-433.2 566,-433.2 566,-411.2 482,-411.2"/>
<text text-anchor="start" x="484.8807" y="-418.9" font-family="Helvetica,sans-Serif" font-size="11.00" fill="#000000">timestamp[29,6]</text>
<polygon fill="none" stroke="#000000" points="254,-389.2 254,-411.2 482,-411.2 482,-389.2 254,-389.2"/>
<text text-anchor="start" x="274" y="-396.3" font-family="Helvetica,sans-Serif" font-size="11.00" fill="#000000">c_message</text>
<polygon fill="none" stroke="#000000" points="482,-389.2 482,-411.2 566,-411.2 566,-389.2 482,-389.2"/>
<text text-anchor="start" x="485" y="-396.9" font-family="Helvetica,sans-Serif" font-size="11.00" fill="#000000">varchar[1024]</text>
<polygon fill="none" stroke="#000000" points="254,-367.2 254,-389.2 482,-389.2 482,-367.2 254,-367.2"/>
<text text-anchor="start" x="274" y="-374.3" font-family="Helvetica,sans-Serif" font-size="11.00" fill="#000000">c_created_by</text>
<polygon fill="none" stroke="#000000" points="482,-367.2 482,-389.2 566,-389.2 566,-367.2 482,-367.2"/>
<text text-anchor="start" x="485" y="-374.9" font-family="Helvetica,sans-Serif" font-size="11.00" fill="#000000">varchar[255]</text>
<polygon fill="none" stroke="#000000" points="254,-345.2 254,-367.2 482,-367.2 482,-345.2 254,-345.2"/>
<text text-anchor="start" x="274" y="-352.3" font-family="Helvetica,sans-Serif" font-size="11.00" fill="#000000">c_initiator</text>
<polygon fill="none" stroke="#000000" points="482,-345.2 482,-367.2 566,-367.2 566,-345.2 482,-345.2"/>
<text text-anchor="start" x="485" y="-352.9" font-family="Helvetica,sans-Serif" font-size="11.00" fill="#000000">varchar[255]</text>
<polygon fill="none" stroke="#000000" points="254,-323.2 254,-345.2 482,-345.2 482,-323.2 254,-323.2"/>
<text text-anchor="start" x="274" y="-330.3" font-family="Helvetica,sans-Serif" font-size="11.00" fill="#000000">c_mode</text>
<polygon fill="none" stroke="#000000" points="482,-323.2 482,-345.2 566,-345.2 566,-323.2 482,-323.2"/>
<text text-anchor="start" x="485" y="-330.9" font-family="Helvetica,sans-Serif" font-size="11.00" fill="#000000">varchar[255]</text>
<polygon fill="none" stroke="#000000" points="254,-301.2 254,-323.2 482,-323.2 482,-301.2 254,-301.2"/>
<text text-anchor="start" x="274" y="-308.3" font-family="Helvetica,sans-Serif" font-size="11.00" fill="#000000">c_no</text>
<polygon fill="none" stroke="#000000" points="482,-301.2 482,-323.2 566,-323.2 566,-301.2 482,-301.2"/>
<text text-anchor="start" x="485" y="-308.9" font-family="Helvetica,sans-Serif" font-size="11.00" fill="#000000">varchar[255]</text>
<polygon fill="#ffffff" stroke="transparent" points="254,-279.2 254,-301.2 482,-301.2 482,-279.2 254,-279.2"/>
<polygon fill="none" stroke="#000000" points="254,-279.2 254,-301.2 482,-301.2 482,-279.2 254,-279.2"/>
<text text-anchor="start" x="274" y="-286.3" font-family="Helvetica,sans-Serif" font-size="11.00" fill="#000000">c_pid</text>
<polygon fill="none" stroke="#000000" points="482,-279.2 482,-301.2 566,-301.2 566,-279.2 482,-279.2"/>
<text text-anchor="start" x="485" y="-286.9" font-family="Helvetica,sans-Serif" font-size="11.00" fill="#000000">varchar[255]</text>
<polygon fill="none" stroke="#000000" points="254,-257.2 254,-279.2 482,-279.2 482,-257.2 254,-257.2"/>
<text text-anchor="start" x="274" y="-264.3" font-family="Helvetica,sans-Serif" font-size="11.00" fill="#000000">c_priority</text>
<polygon fill="none" stroke="#000000" points="482,-257.2 482,-279.2 566,-279.2 566,-257.2 482,-257.2"/>
<text text-anchor="start" x="485" y="-264.9" font-family="Helvetica,sans-Serif" font-size="11.00" fill="#000000">varchar[255]</text>
<polygon fill="none" stroke="#000000" points="254,-235.2 254,-257.2 482,-257.2 482,-235.2 254,-235.2"/>
<text text-anchor="start" x="274" y="-242.3" font-family="Helvetica,sans-Serif" font-size="11.00" fill="#000000">c_sku</text>
<polygon fill="none" stroke="#000000" points="482,-235.2 482,-257.2 566,-257.2 566,-235.2 482,-235.2"/>
<text text-anchor="start" x="485" y="-242.9" font-family="Helvetica,sans-Serif" font-size="11.00" fill="#000000">varchar[255]</text>
<polygon fill="none" stroke="#000000" points="254,-213.2 254,-235.2 482,-235.2 482,-213.2 254,-213.2"/>
<text text-anchor="start" x="274" y="-220.3" font-family="Helvetica,sans-Serif" font-size="11.00" fill="#000000">c_source_location</text>
<polygon fill="none" stroke="#000000" points="482,-213.2 482,-235.2 566,-235.2 566,-213.2 482,-213.2"/>
<text text-anchor="start" x="485" y="-220.9" font-family="Helvetica,sans-Serif" font-size="11.00" fill="#000000">varchar[255]</text>
<polygon fill="none" stroke="#000000" points="254,-191.2 254,-213.2 482,-213.2 482,-191.2 254,-191.2"/>
<text text-anchor="start" x="274" y="-198.3" font-family="Helvetica,sans-Serif" font-size="11.00" fill="#000000">c_source_location_group_name</text>
<polygon fill="none" stroke="#000000" points="482,-191.2 482,-213.2 566,-213.2 566,-191.2 482,-191.2"/>
<text text-anchor="start" x="485" y="-198.9" font-family="Helvetica,sans-Serif" font-size="11.00" fill="#000000">varchar[255]</text>
<polygon fill="none" stroke="#000000" points="254,-169.2 254,-191.2 482,-191.2 482,-169.2 254,-169.2"/>
<text text-anchor="start" x="274" y="-176.3" font-family="Helvetica,sans-Serif" font-size="11.00" fill="#000000">c_state</text>
<polygon fill="none" stroke="#000000" points="482,-169.2 482,-191.2 566,-191.2 566,-169.2 482,-169.2"/>
<text text-anchor="start" x="485" y="-176.9" font-family="Helvetica,sans-Serif" font-size="11.00" fill="#000000">varchar[255]</text>
<polygon fill="none" stroke="#000000" points="254,-147.2 254,-169.2 482,-169.2 482,-147.2 254,-147.2"/>
<text text-anchor="start" x="274" y="-154.3" font-family="Helvetica,sans-Serif" font-size="11.00" fill="#000000">c_target_location</text>
<polygon fill="none" stroke="#000000" points="482,-147.2 482,-169.2 566,-169.2 566,-147.2 482,-147.2"/>
<text text-anchor="start" x="485" y="-154.9" font-family="Helvetica,sans-Serif" font-size="11.00" fill="#000000">varchar[255]</text>
<polygon fill="none" stroke="#000000" points="254,-125.2 254,-147.2 482,-147.2 482,-125.2 254,-125.2"/>
<text text-anchor="start" x="274" y="-132.3" font-family="Helvetica,sans-Serif" font-size="11.00" fill="#000000">c_target_location_group_name</text>
<polygon fill="none" stroke="#000000" points="482,-125.2 482,-147.2 566,-147.2 566,-125.2 482,-125.2"/>
<text text-anchor="start" x="485" y="-132.9" font-family="Helvetica,sans-Serif" font-size="11.00" fill="#000000">varchar[255]</text>
<polygon fill="none" stroke="#000000" points="254,-103.2 254,-125.2 482,-125.2 482,-103.2 254,-103.2"/>
<text text-anchor="start" x="274" y="-110.3" font-family="Helvetica,sans-Serif" font-size="11.00" fill="#000000">c_transport_unit_bk</text>
<polygon fill="none" stroke="#000000" points="482,-103.2 482,-125.2 566,-125.2 566,-103.2 482,-103.2"/>
<text text-anchor="start" x="485" y="-110.9" font-family="Helvetica,sans-Serif" font-size="11.00" fill="#000000">varchar[255]</text>
<polygon fill="none" stroke="#000000" points="254,-81.2 254,-103.2 482,-103.2 482,-81.2 254,-81.2"/>
<text text-anchor="start" x="274" y="-88.3" font-family="Helvetica,sans-Serif" font-size="11.00" fill="#000000">c_type</text>
<polygon fill="none" stroke="#000000" points="482,-81.2 482,-103.2 566,-103.2 566,-81.2 482,-81.2"/>
<text text-anchor="start" x="485" y="-88.9" font-family="Helvetica,sans-Serif" font-size="11.00" fill="#000000">varchar[255]</text>
<polygon fill="none" stroke="#000000" points="254,-59.2 254,-81.2 482,-81.2 482,-59.2 254,-59.2"/>
<text text-anchor="start" x="274" y="-66.3" font-family="Helvetica,sans-Serif" font-size="11.00" fill="#000000">c_updated_by</text>
<polygon fill="none" stroke="#000000" points="482,-59.2 482,-81.2 566,-81.2 566,-59.2 482,-59.2"/>
<text text-anchor="start" x="485" y="-66.9" font-family="Helvetica,sans-Serif" font-size="11.00" fill="#000000">varchar[255]</text>
<polygon fill="#ffffff" stroke="transparent" points="254,-40.2 254,-59.2 359,-59.2 359,-40.2 254,-40.2"/>
<polygon fill="none" stroke="#000000" points="254,-40.2 254,-59.2 359,-59.2 359,-40.2 254,-40.2"/>
<text text-anchor="start" x="257" y="-46.3" font-family="Helvetica,sans-Serif" font-size="11.00" fill="#000000">&lt; 1</text>
<polygon fill="#ffffff" stroke="transparent" points="359,-40.2 359,-59.2 482,-59.2 482,-40.2 359,-40.2"/>
<polygon fill="none" stroke="#000000" points="359,-40.2 359,-59.2 482,-59.2 482,-40.2 359,-40.2"/>
<text text-anchor="start" x="446.6105" y="-46.3" font-family="Helvetica,sans-Serif" font-size="11.00" fill="#000000">3 rows</text>
<polygon fill="#ffffff" stroke="transparent" points="482,-40.2 482,-59.2 566,-59.2 566,-40.2 482,-40.2"/>
<polygon fill="none" stroke="#000000" points="482,-40.2 482,-59.2 566,-59.2 566,-40.2 482,-40.2"/>
<text text-anchor="start" x="547.4053" y="-46.3" font-family="Helvetica,sans-Serif" font-size="11.00" fill="#000000">1 &gt;</text>
<polygon fill="none" stroke="#000000" stroke-width="2" points="253,-39.2 253,-655.2 567,-655.2 567,-39.2 253,-39.2"/>
</a>
</g>
</g>
<!-- mvm_movement_group -->
<g id="node2" class="node">
<title>mvm_movement_group</title>
<g id="a_node2"><a xlink:href="../../tables/mvm_movement_group.html" xlink:title="mvm_movement_group" target="_top">
<polygon fill="#ffffff" stroke="transparent" points="8,-505.7 8,-610.7 203,-610.7 203,-505.7 8,-505.7"/>
<polygon fill="#f5f5f5" stroke="transparent" points="8.5,-587.2 8.5,-610.2 203.5,-610.2 203.5,-587.2 8.5,-587.2"/>
<polygon fill="none" stroke="#000000" points="8.5,-587.2 8.5,-610.2 203.5,-610.2 203.5,-587.2 8.5,-587.2"/>
<text text-anchor="start" x="13.5" y="-595.8" font-family="Helvetica,sans-Serif" font-weight="bold" font-size="11.00" fill="#000000">mvm_movement_group</text>
<text text-anchor="start" x="169.0219" y="-595.3" font-family="Helvetica,sans-Serif" font-size="11.00" fill="#000000">[table]</text>
<polygon fill="none" stroke="#000000" points="8.5,-565.2 8.5,-587.2 203.5,-587.2 203.5,-565.2 8.5,-565.2"/>
<image xlink:href="../../images/primaryKeys.png" width="11px" height="12px" preserveAspectRatio="xMinYMin meet" x="13.5" y="-582.2"/>
<text text-anchor="start" x="37.5" y="-572.3" font-family="Helvetica,sans-Serif" font-size="11.00" fill="#000000">c_pk</text>
<polygon fill="#ffffff" stroke="transparent" points="8.5,-543.2 8.5,-565.2 203.5,-565.2 203.5,-543.2 8.5,-543.2"/>
<polygon fill="none" stroke="#000000" points="8.5,-543.2 8.5,-565.2 203.5,-565.2 203.5,-543.2 8.5,-543.2"/>
<text text-anchor="start" x="37.5" y="-550.3" font-family="Helvetica,sans-Serif" font-size="11.00" fill="#000000">c_pid</text>
<polygon fill="none" stroke="#000000" points="8.5,-524.2 8.5,-543.2 203.5,-543.2 203.5,-524.2 8.5,-524.2"/>
<text text-anchor="start" x="11.5" y="-530.3" font-family="Helvetica,sans-Serif" font-size="11.00" fill="#000000">...</text>
<polygon fill="#ffffff" stroke="transparent" points="8.5,-505.2 8.5,-524.2 95.5,-524.2 95.5,-505.2 8.5,-505.2"/>
<polygon fill="none" stroke="#000000" points="8.5,-505.2 8.5,-524.2 95.5,-524.2 95.5,-505.2 8.5,-505.2"/>
<text text-anchor="start" x="11.5" y="-511.3" font-family="Helvetica,sans-Serif" font-size="11.00" fill="#000000"> &#160;</text>
<polygon fill="#ffffff" stroke="transparent" points="95.5,-505.2 95.5,-524.2 144.5,-524.2 144.5,-505.2 95.5,-505.2"/>
<polygon fill="none" stroke="#000000" points="95.5,-505.2 95.5,-524.2 144.5,-524.2 144.5,-505.2 95.5,-505.2"/>
<text text-anchor="start" x="135.3862" y="-511.3" font-family="Helvetica,sans-Serif" font-size="11.00" fill="#000000"> &#160;</text>
<polygon fill="#ffffff" stroke="transparent" points="144.5,-505.2 144.5,-524.2 203.5,-524.2 203.5,-505.2 144.5,-505.2"/>
<polygon fill="none" stroke="#000000" points="144.5,-505.2 144.5,-524.2 203.5,-524.2 203.5,-505.2 144.5,-505.2"/>
<text text-anchor="start" x="184.9053" y="-511.3" font-family="Helvetica,sans-Serif" font-size="11.00" fill="#000000">1 &gt;</text>
</a>
</g>
</g>
<!-- mvm_movement&#45;&gt;mvm_movement_group -->
<g id="edge1" class="edge">
<title>mvm_movement:w&#45;&gt;mvm_movement_group:e</title>
<path fill="none" stroke="#000000" d="M239.4203,-576.2C227.5435,-576.2 220.158,-576.2 203.5,-576.2"/>
<polygon fill="#000000" stroke="#000000" points="246,-576.2001 254,-579.8 250,-576.2 254,-576.2 254,-576.2 254,-576.2 250,-576.2 254,-572.6 246,-576.2001 246,-576.2001"/>
<ellipse fill="none" stroke="#000000" cx="242.8" cy="-576.2001" rx="3.2" ry="3.2"/>
</g>
<!-- mvm_problem_history -->
<g id="node3" class="node">
<title>mvm_problem_history</title>
<g id="a_node3"><a xlink:href="../../tables/mvm_problem_history.html" xlink:title="mvm_problem_history" target="_top">
<polygon fill="#ffffff" stroke="transparent" points="617,-395.7 617,-522.7 804,-522.7 804,-395.7 617,-395.7"/>
<polygon fill="#f5f5f5" stroke="transparent" points="617.5,-499.2 617.5,-522.2 804.5,-522.2 804.5,-499.2 617.5,-499.2"/>
<polygon fill="none" stroke="#000000" points="617.5,-499.2 617.5,-522.2 804.5,-522.2 804.5,-499.2 617.5,-499.2"/>
<text text-anchor="start" x="622.5" y="-507.8" font-family="Helvetica,sans-Serif" font-weight="bold" font-size="11.00" fill="#000000">mvm_problem_history</text>
<text text-anchor="start" x="770.0219" y="-507.3" font-family="Helvetica,sans-Serif" font-size="11.00" fill="#000000">[table]</text>
<polygon fill="none" stroke="#000000" points="617.5,-477.2 617.5,-499.2 804.5,-499.2 804.5,-477.2 617.5,-477.2"/>
<image xlink:href="../../images/foreignKeys.png" width="11px" height="12px" preserveAspectRatio="xMinYMin meet" x="622.5" y="-494.2"/>
<text text-anchor="start" x="646.5" y="-484.3" font-family="Helvetica,sans-Serif" font-size="11.00" fill="#000000">c_fk_movement</text>
<polygon fill="none" stroke="#000000" points="617.5,-455.2 617.5,-477.2 804.5,-477.2 804.5,-455.2 617.5,-455.2"/>
<image xlink:href="../../images/primaryKeys.png" width="11px" height="12px" preserveAspectRatio="xMinYMin meet" x="622.5" y="-472.2"/>
<text text-anchor="start" x="646.5" y="-462.3" font-family="Helvetica,sans-Serif" font-size="11.00" fill="#000000">c_pk</text>
<polygon fill="#ffffff" stroke="transparent" points="617.5,-433.2 617.5,-455.2 804.5,-455.2 804.5,-433.2 617.5,-433.2"/>
<polygon fill="none" stroke="#000000" points="617.5,-433.2 617.5,-455.2 804.5,-455.2 804.5,-433.2 617.5,-433.2"/>
<text text-anchor="start" x="646.5" y="-440.3" font-family="Helvetica,sans-Serif" font-size="11.00" fill="#000000">c_pid</text>
<polygon fill="none" stroke="#000000" points="617.5,-414.2 617.5,-433.2 804.5,-433.2 804.5,-414.2 617.5,-414.2"/>
<text text-anchor="start" x="620.5" y="-420.3" font-family="Helvetica,sans-Serif" font-size="11.00" fill="#000000">...</text>
<polygon fill="#ffffff" stroke="transparent" points="617.5,-395.2 617.5,-414.2 709.5,-414.2 709.5,-395.2 617.5,-395.2"/>
<polygon fill="none" stroke="#000000" points="617.5,-395.2 617.5,-414.2 709.5,-414.2 709.5,-395.2 617.5,-395.2"/>
<text text-anchor="start" x="620.5" y="-401.3" font-family="Helvetica,sans-Serif" font-size="11.00" fill="#000000">&lt; 1</text>
<polygon fill="#ffffff" stroke="transparent" points="709.5,-395.2 709.5,-414.2 756.5,-414.2 756.5,-395.2 709.5,-395.2"/>
<polygon fill="none" stroke="#000000" points="709.5,-395.2 709.5,-414.2 756.5,-414.2 756.5,-395.2 709.5,-395.2"/>
<text text-anchor="start" x="747.3862" y="-401.3" font-family="Helvetica,sans-Serif" font-size="11.00" fill="#000000"> &#160;</text>
<polygon fill="#ffffff" stroke="transparent" points="756.5,-395.2 756.5,-414.2 804.5,-414.2 804.5,-395.2 756.5,-395.2"/>
<polygon fill="none" stroke="#000000" points="756.5,-395.2 756.5,-414.2 804.5,-414.2 804.5,-395.2 756.5,-395.2"/>
<text text-anchor="start" x="795.3862" y="-401.3" font-family="Helvetica,sans-Serif" font-size="11.00" fill="#000000"> &#160;</text>
</a>
</g>
</g>
<!-- mvm_problem_history&#45;&gt;mvm_movement -->
<g id="edge2" class="edge">
<title>mvm_problem_history:w&#45;&gt;mvm_movement:e</title>
<path fill="none" stroke="#000000" d="M603.0156,-488.2C590.6771,-488.2 583.1667,-488.2 566,-488.2"/>
<polygon fill="#000000" stroke="#000000" points="609.5,-488.2001 617.5,-491.8 613.5,-488.2 617.5,-488.2 617.5,-488.2 617.5,-488.2 613.5,-488.2 617.5,-484.6 609.5,-488.2001 609.5,-488.2001"/>
<ellipse fill="none" stroke="#000000" cx="606.3" cy="-488.2001" rx="3.2" ry="3.2"/>
</g>
</g>
</svg>
