<?xml version="1.0" encoding="UTF-8" standalone="no"?>
<!DOCTYPE svg PUBLIC "-//W3C//DTD SVG 1.1//EN"
 "http://www.w3.org/Graphics/SVG/1.1/DTD/svg11.dtd">
<!-- Generated by graphviz version 2.40.1 (20161225.0304)
 -->
<!-- Title: oneDegreeRelationshipsDiagram Pages: 1 -->
<svg width="566pt" height="316pt"
 viewBox="0.00 0.00 566.00 316.20" xmlns="http://www.w3.org/2000/svg" xmlns:xlink="http://www.w3.org/1999/xlink">
<g id="graph0" class="graph" transform="scale(1 1) rotate(0) translate(4 312.2)">
<title>oneDegreeRelationshipsDiagram</title>
<polygon fill="#ffffff" stroke="transparent" points="-4,4 -4,-312.2 562,-312.2 562,4 -4,4"/>
<text text-anchor="middle" x="72.4936" y="-7.3" font-family="Helvetica,sans-Serif" font-size="11.00" fill="#000000">Generated by SchemaSpy</text>
<!-- mvm_movement -->
<g id="node1" class="node">
<title>mvm_movement</title>
<g id="a_node1"><a xlink:href="../../tables/mvm_movement.html" xlink:title="mvm_movement" target="_top">
<polygon fill="#ffffff" stroke="transparent" points="322,-131.7 322,-258.7 550,-258.7 550,-131.7 322,-131.7"/>
<polygon fill="#f5f5f5" stroke="transparent" points="322,-235.2 322,-258.2 550,-258.2 550,-235.2 322,-235.2"/>
<polygon fill="none" stroke="#000000" points="322,-235.2 322,-258.2 550,-258.2 550,-235.2 322,-235.2"/>
<text text-anchor="start" x="327" y="-243.8" font-family="Helvetica,sans-Serif" font-weight="bold" font-size="11.00" fill="#000000">mvm_movement</text>
<text text-anchor="start" x="515.0437" y="-243.3" font-family="Helvetica,sans-Serif" font-size="11.00" fill="#000000">[table]</text>
<polygon fill="none" stroke="#000000" points="322,-213.2 322,-235.2 550,-235.2 550,-213.2 322,-213.2"/>
<image xlink:href="../../images/foreignKeys.png" width="11px" height="12px" preserveAspectRatio="xMinYMin meet" x="327" y="-230.2"/>
<text text-anchor="start" x="342" y="-220.3" font-family="Helvetica,sans-Serif" font-size="11.00" fill="#000000">c_group_pk</text>
<polygon fill="none" stroke="#000000" points="322,-191.2 322,-213.2 550,-213.2 550,-191.2 322,-191.2"/>
<image xlink:href="../../images/primaryKeys.png" width="11px" height="12px" preserveAspectRatio="xMinYMin meet" x="327" y="-208.2"/>
<text text-anchor="start" x="342" y="-198.3" font-family="Helvetica,sans-Serif" font-size="11.00" fill="#000000">c_pk</text>
<polygon fill="#ffffff" stroke="transparent" points="322,-169.2 322,-191.2 550,-191.2 550,-169.2 322,-169.2"/>
<polygon fill="none" stroke="#000000" points="322,-169.2 322,-191.2 550,-191.2 550,-169.2 322,-169.2"/>
<text text-anchor="start" x="342" y="-176.3" font-family="Helvetica,sans-Serif" font-size="11.00" fill="#000000">c_pid</text>
<polygon fill="none" stroke="#000000" points="322,-150.2 322,-169.2 550,-169.2 550,-150.2 322,-150.2"/>
<text text-anchor="start" x="325" y="-156.3" font-family="Helvetica,sans-Serif" font-size="11.00" fill="#000000">...</text>
<polygon fill="#ffffff" stroke="transparent" points="322,-131.2 322,-150.2 417,-150.2 417,-131.2 322,-131.2"/>
<polygon fill="none" stroke="#000000" points="322,-131.2 322,-150.2 417,-150.2 417,-131.2 322,-131.2"/>
<text text-anchor="start" x="325" y="-137.3" font-family="Helvetica,sans-Serif" font-size="11.00" fill="#000000">&lt; 1</text>
<polygon fill="#ffffff" stroke="transparent" points="417,-131.2 417,-150.2 492,-150.2 492,-131.2 417,-131.2"/>
<polygon fill="none" stroke="#000000" points="417,-131.2 417,-150.2 492,-150.2 492,-131.2 417,-131.2"/>
<text text-anchor="start" x="456.6105" y="-137.3" font-family="Helvetica,sans-Serif" font-size="11.00" fill="#000000">3 rows</text>
<polygon fill="#ffffff" stroke="transparent" points="492,-131.2 492,-150.2 550,-150.2 550,-131.2 492,-131.2"/>
<polygon fill="none" stroke="#000000" points="492,-131.2 492,-150.2 550,-150.2 550,-131.2 492,-131.2"/>
<text text-anchor="start" x="531.4053" y="-137.3" font-family="Helvetica,sans-Serif" font-size="11.00" fill="#000000">1 &gt;</text>
</a>
</g>
</g>
<!-- mvm_movement_group -->
<g id="node2" class="node">
<title>mvm_movement_group</title>
<g id="a_node2"><a xlink:href="../../tables/mvm_movement_group.html" xlink:title="mvm_movement_group" target="_top">
<polygon fill="#ffffff" stroke="transparent" points="8,-38.2 8,-304.2 273,-304.2 273,-38.2 8,-38.2"/>
<polygon fill="#f5f5f5" stroke="transparent" points="10.5,-279.2 10.5,-302.2 271.5,-302.2 271.5,-279.2 10.5,-279.2"/>
<polygon fill="none" stroke="#000000" points="10.5,-279.2 10.5,-302.2 271.5,-302.2 271.5,-279.2 10.5,-279.2"/>
<text text-anchor="start" x="15.5" y="-287.8" font-family="Helvetica,sans-Serif" font-weight="bold" font-size="11.00" fill="#000000">mvm_movement_group</text>
<text text-anchor="start" x="236.5437" y="-287.3" font-family="Helvetica,sans-Serif" font-size="11.00" fill="#000000">[table]</text>
<polygon fill="none" stroke="#000000" points="10.5,-257.2 10.5,-279.2 187.5,-279.2 187.5,-257.2 10.5,-257.2"/>
<text text-anchor="start" x="30.5" y="-264.3" font-family="Helvetica,sans-Serif" font-size="11.00" fill="#000000">c_created</text>
<polygon fill="none" stroke="#000000" points="187.5,-257.2 187.5,-279.2 271.5,-279.2 271.5,-257.2 187.5,-257.2"/>
<text text-anchor="start" x="190.3807" y="-264.9" font-family="Helvetica,sans-Serif" font-size="11.00" fill="#000000">timestamp[29,6]</text>
<polygon fill="none" stroke="#000000" points="10.5,-235.2 10.5,-257.2 187.5,-257.2 187.5,-235.2 10.5,-235.2"/>
<text text-anchor="start" x="30.5" y="-242.3" font-family="Helvetica,sans-Serif" font-size="11.00" fill="#000000">c_ol</text>
<polygon fill="none" stroke="#000000" points="187.5,-235.2 187.5,-257.2 271.5,-257.2 271.5,-235.2 187.5,-235.2"/>
<text text-anchor="start" x="190.5" y="-242.9" font-family="Helvetica,sans-Serif" font-size="11.00" fill="#000000">int8[19]</text>
<polygon fill="none" stroke="#000000" points="10.5,-213.2 10.5,-235.2 187.5,-235.2 187.5,-213.2 10.5,-213.2"/>
<image xlink:href="../../images/primaryKeys.png" width="11px" height="12px" preserveAspectRatio="xMinYMin meet" x="15.5" y="-230.2"/>
<text text-anchor="start" x="30.5" y="-220.3" font-family="Helvetica,sans-Serif" font-size="11.00" fill="#000000">c_pk</text>
<polygon fill="none" stroke="#000000" points="187.5,-213.2 187.5,-235.2 271.5,-235.2 271.5,-213.2 187.5,-213.2"/>
<text text-anchor="start" x="190.5" y="-220.9" font-family="Helvetica,sans-Serif" font-size="11.00" fill="#000000">int8[19]</text>
<polygon fill="none" stroke="#000000" points="10.5,-191.2 10.5,-213.2 187.5,-213.2 187.5,-191.2 10.5,-191.2"/>
<text text-anchor="start" x="30.5" y="-198.3" font-family="Helvetica,sans-Serif" font-size="11.00" fill="#000000">c_updated</text>
<polygon fill="none" stroke="#000000" points="187.5,-191.2 187.5,-213.2 271.5,-213.2 271.5,-191.2 187.5,-191.2"/>
<text text-anchor="start" x="190.3807" y="-198.9" font-family="Helvetica,sans-Serif" font-size="11.00" fill="#000000">timestamp[29,6]</text>
<polygon fill="none" stroke="#000000" points="10.5,-169.2 10.5,-191.2 187.5,-191.2 187.5,-169.2 10.5,-169.2"/>
<text text-anchor="start" x="30.5" y="-176.3" font-family="Helvetica,sans-Serif" font-size="11.00" fill="#000000">c_created_by</text>
<polygon fill="none" stroke="#000000" points="187.5,-169.2 187.5,-191.2 271.5,-191.2 271.5,-169.2 187.5,-169.2"/>
<text text-anchor="start" x="190.5" y="-176.9" font-family="Helvetica,sans-Serif" font-size="11.00" fill="#000000">varchar[255]</text>
<polygon fill="none" stroke="#000000" points="10.5,-147.2 10.5,-169.2 187.5,-169.2 187.5,-147.2 10.5,-147.2"/>
<text text-anchor="start" x="30.5" y="-154.3" font-family="Helvetica,sans-Serif" font-size="11.00" fill="#000000">c_name</text>
<polygon fill="none" stroke="#000000" points="187.5,-147.2 187.5,-169.2 271.5,-169.2 271.5,-147.2 187.5,-147.2"/>
<text text-anchor="start" x="190.5" y="-154.9" font-family="Helvetica,sans-Serif" font-size="11.00" fill="#000000">varchar[255]</text>
<polygon fill="#ffffff" stroke="transparent" points="10.5,-125.2 10.5,-147.2 187.5,-147.2 187.5,-125.2 10.5,-125.2"/>
<polygon fill="none" stroke="#000000" points="10.5,-125.2 10.5,-147.2 187.5,-147.2 187.5,-125.2 10.5,-125.2"/>
<text text-anchor="start" x="30.5" y="-132.3" font-family="Helvetica,sans-Serif" font-size="11.00" fill="#000000">c_pid</text>
<polygon fill="none" stroke="#000000" points="187.5,-125.2 187.5,-147.2 271.5,-147.2 271.5,-125.2 187.5,-125.2"/>
<text text-anchor="start" x="190.5" y="-132.9" font-family="Helvetica,sans-Serif" font-size="11.00" fill="#000000">varchar[255]</text>
<polygon fill="none" stroke="#000000" points="10.5,-103.2 10.5,-125.2 187.5,-125.2 187.5,-103.2 10.5,-103.2"/>
<text text-anchor="start" x="30.5" y="-110.3" font-family="Helvetica,sans-Serif" font-size="11.00" fill="#000000">c_state</text>
<polygon fill="none" stroke="#000000" points="187.5,-103.2 187.5,-125.2 271.5,-125.2 271.5,-103.2 187.5,-103.2"/>
<text text-anchor="start" x="190.5" y="-110.9" font-family="Helvetica,sans-Serif" font-size="11.00" fill="#000000">varchar[255]</text>
<polygon fill="none" stroke="#000000" points="10.5,-81.2 10.5,-103.2 187.5,-103.2 187.5,-81.2 10.5,-81.2"/>
<text text-anchor="start" x="30.5" y="-88.3" font-family="Helvetica,sans-Serif" font-size="11.00" fill="#000000">c_updated_by</text>
<polygon fill="none" stroke="#000000" points="187.5,-81.2 187.5,-103.2 271.5,-103.2 271.5,-81.2 187.5,-81.2"/>
<text text-anchor="start" x="190.5" y="-88.9" font-family="Helvetica,sans-Serif" font-size="11.00" fill="#000000">varchar[255]</text>
<polygon fill="none" stroke="#000000" points="10.5,-59.2 10.5,-81.2 187.5,-81.2 187.5,-59.2 10.5,-59.2"/>
<text text-anchor="start" x="30.5" y="-66.3" font-family="Helvetica,sans-Serif" font-size="11.00" fill="#000000">c_user</text>
<polygon fill="none" stroke="#000000" points="187.5,-59.2 187.5,-81.2 271.5,-81.2 271.5,-59.2 187.5,-59.2"/>
<text text-anchor="start" x="190.5" y="-66.9" font-family="Helvetica,sans-Serif" font-size="11.00" fill="#000000">varchar[255]</text>
<polygon fill="#ffffff" stroke="transparent" points="10.5,-40.2 10.5,-59.2 103.5,-59.2 103.5,-40.2 10.5,-40.2"/>
<polygon fill="none" stroke="#000000" points="10.5,-40.2 10.5,-59.2 103.5,-59.2 103.5,-40.2 10.5,-40.2"/>
<text text-anchor="start" x="13.5" y="-46.3" font-family="Helvetica,sans-Serif" font-size="11.00" fill="#000000">&lt; 0</text>
<polygon fill="#ffffff" stroke="transparent" points="103.5,-40.2 103.5,-59.2 187.5,-59.2 187.5,-40.2 103.5,-40.2"/>
<polygon fill="none" stroke="#000000" points="103.5,-40.2 103.5,-59.2 187.5,-59.2 187.5,-40.2 103.5,-40.2"/>
<text text-anchor="start" x="178.3862" y="-46.3" font-family="Helvetica,sans-Serif" font-size="11.00" fill="#000000"> &#160;</text>
<polygon fill="#ffffff" stroke="transparent" points="187.5,-40.2 187.5,-59.2 271.5,-59.2 271.5,-40.2 187.5,-40.2"/>
<polygon fill="none" stroke="#000000" points="187.5,-40.2 187.5,-59.2 271.5,-59.2 271.5,-40.2 187.5,-40.2"/>
<text text-anchor="start" x="252.9053" y="-46.3" font-family="Helvetica,sans-Serif" font-size="11.00" fill="#000000">1 &gt;</text>
<polygon fill="none" stroke="#000000" stroke-width="2" points="9,-39.2 9,-303.2 272,-303.2 272,-39.2 9,-39.2"/>
</a>
</g>
</g>
<!-- mvm_movement&#45;&gt;mvm_movement_group -->
<g id="edge1" class="edge">
<title>mvm_movement:w&#45;&gt;mvm_movement_group:e</title>
<path fill="none" stroke="#000000" d="M307.4203,-224.2C295.5435,-224.2 288.158,-224.2 271.5,-224.2"/>
<polygon fill="#000000" stroke="#000000" points="314,-224.2001 322,-227.8 318,-224.2 322,-224.2 322,-224.2 322,-224.2 318,-224.2 322,-220.6 314,-224.2001 314,-224.2001"/>
<ellipse fill="none" stroke="#000000" cx="310.8" cy="-224.2001" rx="3.2" ry="3.2"/>
</g>
</g>
</svg>
