<?xml version="1.0" encoding="UTF-8" standalone="no"?>
<!DOCTYPE svg PUBLIC "-//W3C//DTD SVG 1.1//EN"
 "http://www.w3.org/Graphics/SVG/1.1/DTD/svg11.dtd">
<!-- Generated by graphviz version 2.40.1 (20161225.0304)
 -->
<!-- Title: twoDegreesRelationshipsDiagram Pages: 1 -->
<svg width="802pt" height="338pt"
 viewBox="0.00 0.00 802.00 338.20" xmlns="http://www.w3.org/2000/svg" xmlns:xlink="http://www.w3.org/1999/xlink">
<g id="graph0" class="graph" transform="scale(1 1) rotate(0) translate(4 334.2)">
<title>twoDegreesRelationshipsDiagram</title>
<polygon fill="#ffffff" stroke="transparent" points="-4,4 -4,-334.2 798,-334.2 798,4 -4,4"/>
<text text-anchor="middle" x="72.4936" y="-7.3" font-family="Helvetica,sans-Serif" font-size="11.00" fill="#000000">Generated by SchemaSpy</text>
<!-- mvm_movement -->
<g id="node1" class="node">
<title>mvm_movement</title>
<g id="a_node1"><a xlink:href="../../tables/mvm_movement.html" xlink:title="mvm_movement" target="_top">
<polygon fill="#ffffff" stroke="transparent" points="252,-197.7 252,-324.7 480,-324.7 480,-197.7 252,-197.7"/>
<polygon fill="#f5f5f5" stroke="transparent" points="252,-301.2 252,-324.2 480,-324.2 480,-301.2 252,-301.2"/>
<polygon fill="none" stroke="#000000" points="252,-301.2 252,-324.2 480,-324.2 480,-301.2 252,-301.2"/>
<text text-anchor="start" x="257" y="-309.8" font-family="Helvetica,sans-Serif" font-weight="bold" font-size="11.00" fill="#000000">mvm_movement</text>
<text text-anchor="start" x="445.0437" y="-309.3" font-family="Helvetica,sans-Serif" font-size="11.00" fill="#000000">[table]</text>
<polygon fill="none" stroke="#000000" points="252,-279.2 252,-301.2 480,-301.2 480,-279.2 252,-279.2"/>
<image xlink:href="../../images/foreignKeys.png" width="11px" height="12px" preserveAspectRatio="xMinYMin meet" x="257" y="-296.2"/>
<text text-anchor="start" x="272" y="-286.3" font-family="Helvetica,sans-Serif" font-size="11.00" fill="#000000">c_group_pk</text>
<polygon fill="none" stroke="#000000" points="252,-257.2 252,-279.2 480,-279.2 480,-257.2 252,-257.2"/>
<image xlink:href="../../images/primaryKeys.png" width="11px" height="12px" preserveAspectRatio="xMinYMin meet" x="257" y="-274.2"/>
<text text-anchor="start" x="272" y="-264.3" font-family="Helvetica,sans-Serif" font-size="11.00" fill="#000000">c_pk</text>
<polygon fill="#ffffff" stroke="transparent" points="252,-235.2 252,-257.2 480,-257.2 480,-235.2 252,-235.2"/>
<polygon fill="none" stroke="#000000" points="252,-235.2 252,-257.2 480,-257.2 480,-235.2 252,-235.2"/>
<text text-anchor="start" x="272" y="-242.3" font-family="Helvetica,sans-Serif" font-size="11.00" fill="#000000">c_pid</text>
<polygon fill="none" stroke="#000000" points="252,-216.2 252,-235.2 480,-235.2 480,-216.2 252,-216.2"/>
<text text-anchor="start" x="255" y="-222.3" font-family="Helvetica,sans-Serif" font-size="11.00" fill="#000000">...</text>
<polygon fill="#ffffff" stroke="transparent" points="252,-197.2 252,-216.2 347,-216.2 347,-197.2 252,-197.2"/>
<polygon fill="none" stroke="#000000" points="252,-197.2 252,-216.2 347,-216.2 347,-197.2 252,-197.2"/>
<text text-anchor="start" x="255" y="-203.3" font-family="Helvetica,sans-Serif" font-size="11.00" fill="#000000">&lt; 1</text>
<polygon fill="#ffffff" stroke="transparent" points="347,-197.2 347,-216.2 422,-216.2 422,-197.2 347,-197.2"/>
<polygon fill="none" stroke="#000000" points="347,-197.2 347,-216.2 422,-216.2 422,-197.2 347,-197.2"/>
<text text-anchor="start" x="386.6105" y="-203.3" font-family="Helvetica,sans-Serif" font-size="11.00" fill="#000000">3 rows</text>
<polygon fill="#ffffff" stroke="transparent" points="422,-197.2 422,-216.2 480,-216.2 480,-197.2 422,-197.2"/>
<polygon fill="none" stroke="#000000" points="422,-197.2 422,-216.2 480,-216.2 480,-197.2 422,-197.2"/>
<text text-anchor="start" x="461.4053" y="-203.3" font-family="Helvetica,sans-Serif" font-size="11.00" fill="#000000">1 &gt;</text>
</a>
</g>
</g>
<!-- mvm_movement_group -->
<g id="node2" class="node">
<title>mvm_movement_group</title>
<g id="a_node2"><a xlink:href="../../tables/mvm_movement_group.html" xlink:title="mvm_movement_group" target="_top">
<polygon fill="#ffffff" stroke="transparent" points="8,-262.7 8,-323.7 203,-323.7 203,-262.7 8,-262.7"/>
<polygon fill="#f5f5f5" stroke="transparent" points="8.5,-300.2 8.5,-323.2 203.5,-323.2 203.5,-300.2 8.5,-300.2"/>
<polygon fill="none" stroke="#000000" points="8.5,-300.2 8.5,-323.2 203.5,-323.2 203.5,-300.2 8.5,-300.2"/>
<text text-anchor="start" x="13.5" y="-308.8" font-family="Helvetica,sans-Serif" font-weight="bold" font-size="11.00" fill="#000000">mvm_movement_group</text>
<text text-anchor="start" x="169.0219" y="-308.3" font-family="Helvetica,sans-Serif" font-size="11.00" fill="#000000">[table]</text>
<polygon fill="none" stroke="#000000" points="8.5,-281.2 8.5,-300.2 203.5,-300.2 203.5,-281.2 8.5,-281.2"/>
<text text-anchor="start" x="11.5" y="-287.3" font-family="Helvetica,sans-Serif" font-size="11.00" fill="#000000">...</text>
<polygon fill="#ffffff" stroke="transparent" points="8.5,-262.2 8.5,-281.2 95.5,-281.2 95.5,-262.2 8.5,-262.2"/>
<polygon fill="none" stroke="#000000" points="8.5,-262.2 8.5,-281.2 95.5,-281.2 95.5,-262.2 8.5,-262.2"/>
<text text-anchor="start" x="11.5" y="-268.3" font-family="Helvetica,sans-Serif" font-size="11.00" fill="#000000"> &#160;</text>
<polygon fill="#ffffff" stroke="transparent" points="95.5,-262.2 95.5,-281.2 144.5,-281.2 144.5,-262.2 95.5,-262.2"/>
<polygon fill="none" stroke="#000000" points="95.5,-262.2 95.5,-281.2 144.5,-281.2 144.5,-262.2 95.5,-262.2"/>
<text text-anchor="start" x="135.3862" y="-268.3" font-family="Helvetica,sans-Serif" font-size="11.00" fill="#000000"> &#160;</text>
<polygon fill="#ffffff" stroke="transparent" points="144.5,-262.2 144.5,-281.2 203.5,-281.2 203.5,-262.2 144.5,-262.2"/>
<polygon fill="none" stroke="#000000" points="144.5,-262.2 144.5,-281.2 203.5,-281.2 203.5,-262.2 144.5,-262.2"/>
<text text-anchor="start" x="184.9053" y="-268.3" font-family="Helvetica,sans-Serif" font-size="11.00" fill="#000000">1 &gt;</text>
</a>
</g>
</g>
<!-- mvm_movement&#45;&gt;mvm_movement_group -->
<g id="edge1" class="edge">
<title>mvm_movement:w&#45;&gt;mvm_movement_group:e</title>
<path fill="none" stroke="#000000" d="M237.2829,-290.2C226.2886,-290.2 219.1615,-290.2 203.5,-290.2"/>
<polygon fill="#000000" stroke="#000000" points="244,-290.2001 252,-293.8 248,-290.2 252,-290.2 252,-290.2 252,-290.2 248,-290.2 252,-286.6 244,-290.2001 244,-290.2001"/>
<ellipse fill="none" stroke="#000000" cx="240.8" cy="-290.2001" rx="3.2" ry="3.2"/>
</g>
<!-- mvm_problem_history -->
<g id="node3" class="node">
<title>mvm_problem_history</title>
<g id="a_node3"><a xlink:href="../../tables/mvm_problem_history.html" xlink:title="mvm_problem_history" target="_top">
<polygon fill="#ffffff" stroke="transparent" points="529,-38.2 529,-326.2 786,-326.2 786,-38.2 529,-38.2"/>
<polygon fill="#f5f5f5" stroke="transparent" points="531.5,-301.2 531.5,-324.2 784.5,-324.2 784.5,-301.2 531.5,-301.2"/>
<polygon fill="none" stroke="#000000" points="531.5,-301.2 531.5,-324.2 784.5,-324.2 784.5,-301.2 531.5,-301.2"/>
<text text-anchor="start" x="536.5" y="-309.8" font-family="Helvetica,sans-Serif" font-weight="bold" font-size="11.00" fill="#000000">mvm_problem_history</text>
<text text-anchor="start" x="749.5437" y="-309.3" font-family="Helvetica,sans-Serif" font-size="11.00" fill="#000000">[table]</text>
<polygon fill="none" stroke="#000000" points="531.5,-279.2 531.5,-301.2 700.5,-301.2 700.5,-279.2 531.5,-279.2"/>
<text text-anchor="start" x="551.5" y="-286.3" font-family="Helvetica,sans-Serif" font-size="11.00" fill="#000000">c_created</text>
<polygon fill="none" stroke="#000000" points="700.5,-279.2 700.5,-301.2 784.5,-301.2 784.5,-279.2 700.5,-279.2"/>
<text text-anchor="start" x="703.3807" y="-286.9" font-family="Helvetica,sans-Serif" font-size="11.00" fill="#000000">timestamp[29,6]</text>
<polygon fill="none" stroke="#000000" points="531.5,-257.2 531.5,-279.2 700.5,-279.2 700.5,-257.2 531.5,-257.2"/>
<image xlink:href="../../images/foreignKeys.png" width="11px" height="12px" preserveAspectRatio="xMinYMin meet" x="536.5" y="-274.2"/>
<text text-anchor="start" x="551.5" y="-264.3" font-family="Helvetica,sans-Serif" font-size="11.00" fill="#000000">c_fk_movement</text>
<polygon fill="none" stroke="#000000" points="700.5,-257.2 700.5,-279.2 784.5,-279.2 784.5,-257.2 700.5,-257.2"/>
<text text-anchor="start" x="703.5" y="-264.9" font-family="Helvetica,sans-Serif" font-size="11.00" fill="#000000">int8[19]</text>
<polygon fill="none" stroke="#000000" points="531.5,-235.2 531.5,-257.2 700.5,-257.2 700.5,-235.2 531.5,-235.2"/>
<text text-anchor="start" x="551.5" y="-242.3" font-family="Helvetica,sans-Serif" font-size="11.00" fill="#000000">c_occurred</text>
<polygon fill="none" stroke="#000000" points="700.5,-235.2 700.5,-257.2 784.5,-257.2 784.5,-235.2 700.5,-235.2"/>
<text text-anchor="start" x="703.3807" y="-242.9" font-family="Helvetica,sans-Serif" font-size="11.00" fill="#000000">timestamp[29,6]</text>
<polygon fill="none" stroke="#000000" points="531.5,-213.2 531.5,-235.2 700.5,-235.2 700.5,-213.2 531.5,-213.2"/>
<text text-anchor="start" x="551.5" y="-220.3" font-family="Helvetica,sans-Serif" font-size="11.00" fill="#000000">c_ol</text>
<polygon fill="none" stroke="#000000" points="700.5,-213.2 700.5,-235.2 784.5,-235.2 784.5,-213.2 700.5,-213.2"/>
<text text-anchor="start" x="703.5" y="-220.9" font-family="Helvetica,sans-Serif" font-size="11.00" fill="#000000">int8[19]</text>
<polygon fill="none" stroke="#000000" points="531.5,-191.2 531.5,-213.2 700.5,-213.2 700.5,-191.2 531.5,-191.2"/>
<image xlink:href="../../images/primaryKeys.png" width="11px" height="12px" preserveAspectRatio="xMinYMin meet" x="536.5" y="-208.2"/>
<text text-anchor="start" x="551.5" y="-198.3" font-family="Helvetica,sans-Serif" font-size="11.00" fill="#000000">c_pk</text>
<polygon fill="none" stroke="#000000" points="700.5,-191.2 700.5,-213.2 784.5,-213.2 784.5,-191.2 700.5,-191.2"/>
<text text-anchor="start" x="703.5" y="-198.9" font-family="Helvetica,sans-Serif" font-size="11.00" fill="#000000">int8[19]</text>
<polygon fill="none" stroke="#000000" points="531.5,-169.2 531.5,-191.2 700.5,-191.2 700.5,-169.2 531.5,-169.2"/>
<text text-anchor="start" x="551.5" y="-176.3" font-family="Helvetica,sans-Serif" font-size="11.00" fill="#000000">c_updated</text>
<polygon fill="none" stroke="#000000" points="700.5,-169.2 700.5,-191.2 784.5,-191.2 784.5,-169.2 700.5,-169.2"/>
<text text-anchor="start" x="703.3807" y="-176.9" font-family="Helvetica,sans-Serif" font-size="11.00" fill="#000000">timestamp[29,6]</text>
<polygon fill="none" stroke="#000000" points="531.5,-147.2 531.5,-169.2 700.5,-169.2 700.5,-147.2 531.5,-147.2"/>
<text text-anchor="start" x="551.5" y="-154.3" font-family="Helvetica,sans-Serif" font-size="11.00" fill="#000000">c_message</text>
<polygon fill="none" stroke="#000000" points="700.5,-147.2 700.5,-169.2 784.5,-169.2 784.5,-147.2 700.5,-147.2"/>
<text text-anchor="start" x="703.5" y="-154.9" font-family="Helvetica,sans-Serif" font-size="11.00" fill="#000000">varchar[1024]</text>
<polygon fill="none" stroke="#000000" points="531.5,-125.2 531.5,-147.2 700.5,-147.2 700.5,-125.2 531.5,-125.2"/>
<text text-anchor="start" x="551.5" y="-132.3" font-family="Helvetica,sans-Serif" font-size="11.00" fill="#000000">c_created_by</text>
<polygon fill="none" stroke="#000000" points="700.5,-125.2 700.5,-147.2 784.5,-147.2 784.5,-125.2 700.5,-125.2"/>
<text text-anchor="start" x="703.5" y="-132.9" font-family="Helvetica,sans-Serif" font-size="11.00" fill="#000000">varchar[255]</text>
<polygon fill="none" stroke="#000000" points="531.5,-103.2 531.5,-125.2 700.5,-125.2 700.5,-103.2 531.5,-103.2"/>
<text text-anchor="start" x="551.5" y="-110.3" font-family="Helvetica,sans-Serif" font-size="11.00" fill="#000000">c_no</text>
<polygon fill="none" stroke="#000000" points="700.5,-103.2 700.5,-125.2 784.5,-125.2 784.5,-103.2 700.5,-103.2"/>
<text text-anchor="start" x="703.5" y="-110.9" font-family="Helvetica,sans-Serif" font-size="11.00" fill="#000000">varchar[255]</text>
<polygon fill="#ffffff" stroke="transparent" points="531.5,-81.2 531.5,-103.2 700.5,-103.2 700.5,-81.2 531.5,-81.2"/>
<polygon fill="none" stroke="#000000" points="531.5,-81.2 531.5,-103.2 700.5,-103.2 700.5,-81.2 531.5,-81.2"/>
<text text-anchor="start" x="551.5" y="-88.3" font-family="Helvetica,sans-Serif" font-size="11.00" fill="#000000">c_pid</text>
<polygon fill="none" stroke="#000000" points="700.5,-81.2 700.5,-103.2 784.5,-103.2 784.5,-81.2 700.5,-81.2"/>
<text text-anchor="start" x="703.5" y="-88.9" font-family="Helvetica,sans-Serif" font-size="11.00" fill="#000000">varchar[255]</text>
<polygon fill="none" stroke="#000000" points="531.5,-59.2 531.5,-81.2 700.5,-81.2 700.5,-59.2 531.5,-59.2"/>
<text text-anchor="start" x="551.5" y="-66.3" font-family="Helvetica,sans-Serif" font-size="11.00" fill="#000000">c_updated_by</text>
<polygon fill="none" stroke="#000000" points="700.5,-59.2 700.5,-81.2 784.5,-81.2 784.5,-59.2 700.5,-59.2"/>
<text text-anchor="start" x="703.5" y="-66.9" font-family="Helvetica,sans-Serif" font-size="11.00" fill="#000000">varchar[255]</text>
<polygon fill="#ffffff" stroke="transparent" points="531.5,-40.2 531.5,-59.2 620.5,-59.2 620.5,-40.2 531.5,-40.2"/>
<polygon fill="none" stroke="#000000" points="531.5,-40.2 531.5,-59.2 620.5,-59.2 620.5,-40.2 531.5,-40.2"/>
<text text-anchor="start" x="534.5" y="-46.3" font-family="Helvetica,sans-Serif" font-size="11.00" fill="#000000">&lt; 1</text>
<polygon fill="#ffffff" stroke="transparent" points="620.5,-40.2 620.5,-59.2 700.5,-59.2 700.5,-40.2 620.5,-40.2"/>
<polygon fill="none" stroke="#000000" points="620.5,-40.2 620.5,-59.2 700.5,-59.2 700.5,-40.2 620.5,-40.2"/>
<text text-anchor="start" x="691.3862" y="-46.3" font-family="Helvetica,sans-Serif" font-size="11.00" fill="#000000"> &#160;</text>
<polygon fill="#ffffff" stroke="transparent" points="700.5,-40.2 700.5,-59.2 784.5,-59.2 784.5,-40.2 700.5,-40.2"/>
<polygon fill="none" stroke="#000000" points="700.5,-40.2 700.5,-59.2 784.5,-59.2 784.5,-40.2 700.5,-40.2"/>
<text text-anchor="start" x="765.9053" y="-46.3" font-family="Helvetica,sans-Serif" font-size="11.00" fill="#000000">0 &gt;</text>
<polygon fill="none" stroke="#000000" stroke-width="2" points="530,-39.2 530,-325.2 785,-325.2 785,-39.2 530,-39.2"/>
</a>
</g>
</g>
<!-- mvm_problem_history&#45;&gt;mvm_movement -->
<g id="edge2" class="edge">
<title>mvm_problem_history:w&#45;&gt;mvm_movement:e</title>
<path fill="none" stroke="#000000" d="M517.0156,-268.2C504.6771,-268.2 497.1667,-268.2 480,-268.2"/>
<polygon fill="#000000" stroke="#000000" points="523.5,-268.2001 531.5,-271.8 527.5,-268.2 531.5,-268.2 531.5,-268.2 531.5,-268.2 527.5,-268.2 531.5,-264.6 523.5,-268.2001 523.5,-268.2001"/>
<ellipse fill="none" stroke="#000000" cx="520.3" cy="-268.2001" rx="3.2" ry="3.2"/>
</g>
</g>
</svg>
