<?xml version="1.0" encoding="UTF-8" standalone="no"?>
<!DOCTYPE svg PUBLIC "-//W3C//DTD SVG 1.1//EN"
 "http://www.w3.org/Graphics/SVG/1.1/DTD/svg11.dtd">
<!-- Generated by graphviz version 2.40.1 (20161225.0304)
 -->
<!-- Title: oneDegreeRelationshipsDiagram Pages: 1 -->
<svg width="558pt" height="338pt"
 viewBox="0.00 0.00 558.00 338.20" xmlns="http://www.w3.org/2000/svg" xmlns:xlink="http://www.w3.org/1999/xlink">
<g id="graph0" class="graph" transform="scale(1 1) rotate(0) translate(4 334.2)">
<title>oneDegreeRelationshipsDiagram</title>
<polygon fill="#ffffff" stroke="transparent" points="-4,4 -4,-334.2 554,-334.2 554,4 -4,4"/>
<text text-anchor="middle" x="72.4936" y="-7.3" font-family="Helvetica,sans-Serif" font-size="11.00" fill="#000000">Generated by SchemaSpy</text>
<!-- mvm_problem_history -->
<g id="node1" class="node">
<title>mvm_problem_history</title>
<g id="a_node1"><a xlink:href="../../tables/mvm_problem_history.html" xlink:title="mvm_problem_history" target="_top">
<polygon fill="#ffffff" stroke="transparent" points="285,-38.2 285,-326.2 542,-326.2 542,-38.2 285,-38.2"/>
<polygon fill="#f5f5f5" stroke="transparent" points="287.5,-301.2 287.5,-324.2 540.5,-324.2 540.5,-301.2 287.5,-301.2"/>
<polygon fill="none" stroke="#000000" points="287.5,-301.2 287.5,-324.2 540.5,-324.2 540.5,-301.2 287.5,-301.2"/>
<text text-anchor="start" x="292.5" y="-309.8" font-family="Helvetica,sans-Serif" font-weight="bold" font-size="11.00" fill="#000000">mvm_problem_history</text>
<text text-anchor="start" x="505.5437" y="-309.3" font-family="Helvetica,sans-Serif" font-size="11.00" fill="#000000">[table]</text>
<polygon fill="none" stroke="#000000" points="287.5,-279.2 287.5,-301.2 456.5,-301.2 456.5,-279.2 287.5,-279.2"/>
<text text-anchor="start" x="307.5" y="-286.3" font-family="Helvetica,sans-Serif" font-size="11.00" fill="#000000">c_created</text>
<polygon fill="none" stroke="#000000" points="456.5,-279.2 456.5,-301.2 540.5,-301.2 540.5,-279.2 456.5,-279.2"/>
<text text-anchor="start" x="459.3807" y="-286.9" font-family="Helvetica,sans-Serif" font-size="11.00" fill="#000000">timestamp[29,6]</text>
<polygon fill="none" stroke="#000000" points="287.5,-257.2 287.5,-279.2 456.5,-279.2 456.5,-257.2 287.5,-257.2"/>
<image xlink:href="../../images/foreignKeys.png" width="11px" height="12px" preserveAspectRatio="xMinYMin meet" x="292.5" y="-274.2"/>
<text text-anchor="start" x="307.5" y="-264.3" font-family="Helvetica,sans-Serif" font-size="11.00" fill="#000000">c_fk_movement</text>
<polygon fill="none" stroke="#000000" points="456.5,-257.2 456.5,-279.2 540.5,-279.2 540.5,-257.2 456.5,-257.2"/>
<text text-anchor="start" x="459.5" y="-264.9" font-family="Helvetica,sans-Serif" font-size="11.00" fill="#000000">int8[19]</text>
<polygon fill="none" stroke="#000000" points="287.5,-235.2 287.5,-257.2 456.5,-257.2 456.5,-235.2 287.5,-235.2"/>
<text text-anchor="start" x="307.5" y="-242.3" font-family="Helvetica,sans-Serif" font-size="11.00" fill="#000000">c_occurred</text>
<polygon fill="none" stroke="#000000" points="456.5,-235.2 456.5,-257.2 540.5,-257.2 540.5,-235.2 456.5,-235.2"/>
<text text-anchor="start" x="459.3807" y="-242.9" font-family="Helvetica,sans-Serif" font-size="11.00" fill="#000000">timestamp[29,6]</text>
<polygon fill="none" stroke="#000000" points="287.5,-213.2 287.5,-235.2 456.5,-235.2 456.5,-213.2 287.5,-213.2"/>
<text text-anchor="start" x="307.5" y="-220.3" font-family="Helvetica,sans-Serif" font-size="11.00" fill="#000000">c_ol</text>
<polygon fill="none" stroke="#000000" points="456.5,-213.2 456.5,-235.2 540.5,-235.2 540.5,-213.2 456.5,-213.2"/>
<text text-anchor="start" x="459.5" y="-220.9" font-family="Helvetica,sans-Serif" font-size="11.00" fill="#000000">int8[19]</text>
<polygon fill="none" stroke="#000000" points="287.5,-191.2 287.5,-213.2 456.5,-213.2 456.5,-191.2 287.5,-191.2"/>
<image xlink:href="../../images/primaryKeys.png" width="11px" height="12px" preserveAspectRatio="xMinYMin meet" x="292.5" y="-208.2"/>
<text text-anchor="start" x="307.5" y="-198.3" font-family="Helvetica,sans-Serif" font-size="11.00" fill="#000000">c_pk</text>
<polygon fill="none" stroke="#000000" points="456.5,-191.2 456.5,-213.2 540.5,-213.2 540.5,-191.2 456.5,-191.2"/>
<text text-anchor="start" x="459.5" y="-198.9" font-family="Helvetica,sans-Serif" font-size="11.00" fill="#000000">int8[19]</text>
<polygon fill="none" stroke="#000000" points="287.5,-169.2 287.5,-191.2 456.5,-191.2 456.5,-169.2 287.5,-169.2"/>
<text text-anchor="start" x="307.5" y="-176.3" font-family="Helvetica,sans-Serif" font-size="11.00" fill="#000000">c_updated</text>
<polygon fill="none" stroke="#000000" points="456.5,-169.2 456.5,-191.2 540.5,-191.2 540.5,-169.2 456.5,-169.2"/>
<text text-anchor="start" x="459.3807" y="-176.9" font-family="Helvetica,sans-Serif" font-size="11.00" fill="#000000">timestamp[29,6]</text>
<polygon fill="none" stroke="#000000" points="287.5,-147.2 287.5,-169.2 456.5,-169.2 456.5,-147.2 287.5,-147.2"/>
<text text-anchor="start" x="307.5" y="-154.3" font-family="Helvetica,sans-Serif" font-size="11.00" fill="#000000">c_message</text>
<polygon fill="none" stroke="#000000" points="456.5,-147.2 456.5,-169.2 540.5,-169.2 540.5,-147.2 456.5,-147.2"/>
<text text-anchor="start" x="459.5" y="-154.9" font-family="Helvetica,sans-Serif" font-size="11.00" fill="#000000">varchar[1024]</text>
<polygon fill="none" stroke="#000000" points="287.5,-125.2 287.5,-147.2 456.5,-147.2 456.5,-125.2 287.5,-125.2"/>
<text text-anchor="start" x="307.5" y="-132.3" font-family="Helvetica,sans-Serif" font-size="11.00" fill="#000000">c_created_by</text>
<polygon fill="none" stroke="#000000" points="456.5,-125.2 456.5,-147.2 540.5,-147.2 540.5,-125.2 456.5,-125.2"/>
<text text-anchor="start" x="459.5" y="-132.9" font-family="Helvetica,sans-Serif" font-size="11.00" fill="#000000">varchar[255]</text>
<polygon fill="none" stroke="#000000" points="287.5,-103.2 287.5,-125.2 456.5,-125.2 456.5,-103.2 287.5,-103.2"/>
<text text-anchor="start" x="307.5" y="-110.3" font-family="Helvetica,sans-Serif" font-size="11.00" fill="#000000">c_no</text>
<polygon fill="none" stroke="#000000" points="456.5,-103.2 456.5,-125.2 540.5,-125.2 540.5,-103.2 456.5,-103.2"/>
<text text-anchor="start" x="459.5" y="-110.9" font-family="Helvetica,sans-Serif" font-size="11.00" fill="#000000">varchar[255]</text>
<polygon fill="#ffffff" stroke="transparent" points="287.5,-81.2 287.5,-103.2 456.5,-103.2 456.5,-81.2 287.5,-81.2"/>
<polygon fill="none" stroke="#000000" points="287.5,-81.2 287.5,-103.2 456.5,-103.2 456.5,-81.2 287.5,-81.2"/>
<text text-anchor="start" x="307.5" y="-88.3" font-family="Helvetica,sans-Serif" font-size="11.00" fill="#000000">c_pid</text>
<polygon fill="none" stroke="#000000" points="456.5,-81.2 456.5,-103.2 540.5,-103.2 540.5,-81.2 456.5,-81.2"/>
<text text-anchor="start" x="459.5" y="-88.9" font-family="Helvetica,sans-Serif" font-size="11.00" fill="#000000">varchar[255]</text>
<polygon fill="none" stroke="#000000" points="287.5,-59.2 287.5,-81.2 456.5,-81.2 456.5,-59.2 287.5,-59.2"/>
<text text-anchor="start" x="307.5" y="-66.3" font-family="Helvetica,sans-Serif" font-size="11.00" fill="#000000">c_updated_by</text>
<polygon fill="none" stroke="#000000" points="456.5,-59.2 456.5,-81.2 540.5,-81.2 540.5,-59.2 456.5,-59.2"/>
<text text-anchor="start" x="459.5" y="-66.9" font-family="Helvetica,sans-Serif" font-size="11.00" fill="#000000">varchar[255]</text>
<polygon fill="#ffffff" stroke="transparent" points="287.5,-40.2 287.5,-59.2 376.5,-59.2 376.5,-40.2 287.5,-40.2"/>
<polygon fill="none" stroke="#000000" points="287.5,-40.2 287.5,-59.2 376.5,-59.2 376.5,-40.2 287.5,-40.2"/>
<text text-anchor="start" x="290.5" y="-46.3" font-family="Helvetica,sans-Serif" font-size="11.00" fill="#000000">&lt; 1</text>
<polygon fill="#ffffff" stroke="transparent" points="376.5,-40.2 376.5,-59.2 456.5,-59.2 456.5,-40.2 376.5,-40.2"/>
<polygon fill="none" stroke="#000000" points="376.5,-40.2 376.5,-59.2 456.5,-59.2 456.5,-40.2 376.5,-40.2"/>
<text text-anchor="start" x="447.3862" y="-46.3" font-family="Helvetica,sans-Serif" font-size="11.00" fill="#000000"> &#160;</text>
<polygon fill="#ffffff" stroke="transparent" points="456.5,-40.2 456.5,-59.2 540.5,-59.2 540.5,-40.2 456.5,-40.2"/>
<polygon fill="none" stroke="#000000" points="456.5,-40.2 456.5,-59.2 540.5,-59.2 540.5,-40.2 456.5,-40.2"/>
<text text-anchor="start" x="521.9053" y="-46.3" font-family="Helvetica,sans-Serif" font-size="11.00" fill="#000000">0 &gt;</text>
<polygon fill="none" stroke="#000000" stroke-width="2" points="286,-39.2 286,-325.2 541,-325.2 541,-39.2 286,-39.2"/>
</a>
</g>
</g>
<!-- mvm_movement -->
<g id="node2" class="node">
<title>mvm_movement</title>
<g id="a_node2"><a xlink:href="../../tables/mvm_movement.html" xlink:title="mvm_movement" target="_top">
<polygon fill="#ffffff" stroke="transparent" points="8,-197.7 8,-324.7 236,-324.7 236,-197.7 8,-197.7"/>
<polygon fill="#f5f5f5" stroke="transparent" points="8,-301.2 8,-324.2 236,-324.2 236,-301.2 8,-301.2"/>
<polygon fill="none" stroke="#000000" points="8,-301.2 8,-324.2 236,-324.2 236,-301.2 8,-301.2"/>
<text text-anchor="start" x="13" y="-309.8" font-family="Helvetica,sans-Serif" font-weight="bold" font-size="11.00" fill="#000000">mvm_movement</text>
<text text-anchor="start" x="201.0437" y="-309.3" font-family="Helvetica,sans-Serif" font-size="11.00" fill="#000000">[table]</text>
<polygon fill="none" stroke="#000000" points="8,-279.2 8,-301.2 236,-301.2 236,-279.2 8,-279.2"/>
<image xlink:href="../../images/foreignKeys.png" width="11px" height="12px" preserveAspectRatio="xMinYMin meet" x="13" y="-296.2"/>
<text text-anchor="start" x="28" y="-286.3" font-family="Helvetica,sans-Serif" font-size="11.00" fill="#000000">c_group_pk</text>
<polygon fill="none" stroke="#000000" points="8,-257.2 8,-279.2 236,-279.2 236,-257.2 8,-257.2"/>
<image xlink:href="../../images/primaryKeys.png" width="11px" height="12px" preserveAspectRatio="xMinYMin meet" x="13" y="-274.2"/>
<text text-anchor="start" x="28" y="-264.3" font-family="Helvetica,sans-Serif" font-size="11.00" fill="#000000">c_pk</text>
<polygon fill="#ffffff" stroke="transparent" points="8,-235.2 8,-257.2 236,-257.2 236,-235.2 8,-235.2"/>
<polygon fill="none" stroke="#000000" points="8,-235.2 8,-257.2 236,-257.2 236,-235.2 8,-235.2"/>
<text text-anchor="start" x="28" y="-242.3" font-family="Helvetica,sans-Serif" font-size="11.00" fill="#000000">c_pid</text>
<polygon fill="none" stroke="#000000" points="8,-216.2 8,-235.2 236,-235.2 236,-216.2 8,-216.2"/>
<text text-anchor="start" x="11" y="-222.3" font-family="Helvetica,sans-Serif" font-size="11.00" fill="#000000">...</text>
<polygon fill="#ffffff" stroke="transparent" points="8,-197.2 8,-216.2 103,-216.2 103,-197.2 8,-197.2"/>
<polygon fill="none" stroke="#000000" points="8,-197.2 8,-216.2 103,-216.2 103,-197.2 8,-197.2"/>
<text text-anchor="start" x="11" y="-203.3" font-family="Helvetica,sans-Serif" font-size="11.00" fill="#000000">&lt; 1</text>
<polygon fill="#ffffff" stroke="transparent" points="103,-197.2 103,-216.2 178,-216.2 178,-197.2 103,-197.2"/>
<polygon fill="none" stroke="#000000" points="103,-197.2 103,-216.2 178,-216.2 178,-197.2 103,-197.2"/>
<text text-anchor="start" x="142.6105" y="-203.3" font-family="Helvetica,sans-Serif" font-size="11.00" fill="#000000">3 rows</text>
<polygon fill="#ffffff" stroke="transparent" points="178,-197.2 178,-216.2 236,-216.2 236,-197.2 178,-197.2"/>
<polygon fill="none" stroke="#000000" points="178,-197.2 178,-216.2 236,-216.2 236,-197.2 178,-197.2"/>
<text text-anchor="start" x="217.4053" y="-203.3" font-family="Helvetica,sans-Serif" font-size="11.00" fill="#000000">1 &gt;</text>
</a>
</g>
</g>
<!-- mvm_problem_history&#45;&gt;mvm_movement -->
<g id="edge1" class="edge">
<title>mvm_problem_history:w&#45;&gt;mvm_movement:e</title>
<path fill="none" stroke="#000000" d="M273.0156,-268.2C260.6771,-268.2 253.1667,-268.2 236,-268.2"/>
<polygon fill="#000000" stroke="#000000" points="279.5,-268.2001 287.5,-271.8 283.5,-268.2 287.5,-268.2 287.5,-268.2 287.5,-268.2 283.5,-268.2 287.5,-264.6 279.5,-268.2001 279.5,-268.2001"/>
<ellipse fill="none" stroke="#000000" cx="276.3" cy="-268.2001" rx="3.2" ry="3.2"/>
</g>
</g>
</svg>
